<?xml version="1.0" standalone="no"?>
<!DOCTYPE svg PUBLIC "-//W3C//DTD SVG 20010904//EN"
 "http://www.w3.org/TR/2001/REC-SVG-20010904/DTD/svg10.dtd">
<svg version="1.0" xmlns="http://www.w3.org/2000/svg"
 width="671.000000pt" height="540.000000pt" viewBox="0 0 671.000000 540.000000"
 preserveAspectRatio="xMidYMid meet">

<g transform="translate(0.000000,540.000000) scale(0.100000,-0.100000)"
fill="#000000" stroke="none">
<path d="M60 5150 c0 -168 2 -190 16 -190 10 0 14 -6 10 -15 -3 -8 -1 -15 4
-15 6 0 10 5 10 10 0 16 363 13 378 -2 10 -10 14 -10 21 0 6 10 623 12 3054
10 l3047 -3 0 106 c0 58 -3 147 -6 197 l-7 92 -3263 0 -3264 0 0 -190z m4174
38 c15 -30 17 -43 9 -60 -6 -13 -14 -31 -17 -41 -6 -18 -7 -17 -32 2 -32 25
-71 27 -102 5 -12 -8 -22 -14 -23 -12 0 2 -3 29 -5 61 -7 79 2 89 85 85 64 -3
65 -4 85 -40z m1344 26 c18 -12 22 -25 22 -65 0 -68 -22 -89 -92 -89 -72 0
-81 8 -86 77 -3 46 0 63 13 76 22 22 112 23 143 1z m-3788 -14 c44 -44 11
-130 -44 -116 -47 12 -54 99 -9 125 25 15 30 14 53 -9z m940 -56 c0 -48 -3
-65 -12 -62 -13 5 -23 89 -14 114 13 35 26 9 26 -52z m60 22 c0 -40 -12 -86
-23 -86 -6 0 -7 16 -3 41 5 32 3 44 -10 54 -9 6 -14 17 -10 24 12 18 46 -6 46
-33z m-2140 10 c26 -29 23 -46 -14 -66 -48 -25 -90 19 -61 63 22 34 45 34 75
3z m174 15 c4 -5 -2 -7 -12 -4 -10 2 -25 -3 -32 -12 -18 -21 -1 -50 28 -49 12
0 19 -3 16 -8 -8 -12 -38 -10 -52 4 -15 15 -15 51 0 66 14 14 44 16 52 3z
m136 -34 c0 -38 -3 -43 -24 -45 -17 -1 -27 5 -31 18 -8 26 1 40 26 40 10 0 19
7 19 15 0 8 2 15 5 15 3 0 5 -19 5 -43z m1979 34 c16 -10 8 -41 -11 -41 -10 0
-10 2 1 9 16 10 6 31 -14 31 -9 0 -15 -15 -18 -42 l-4 -43 -1 48 c-2 39 1 47
16 47 9 0 23 -4 31 -9z m103 -43 c2 -21 0 -38 -4 -38 -4 0 -8 21 -7 48 1 52 6
48 11 -10z m41 -27 c10 -11 9 -13 -3 -9 -10 3 -15 19 -16 49 -1 35 -1 37 3 9
3 -19 10 -41 16 -49z m104 30 c2 -42 1 -43 -13 -22 -19 27 -32 27 -37 -1 -2
-13 -5 -1 -6 25 -1 47 0 48 27 45 24 -3 27 -7 29 -47z m1214 39 c21 -12 25
-50 7 -68 -7 -7 -22 -12 -35 -12 -21 0 -23 5 -23 45 0 48 11 56 51 35z m1387
-17 c3 -17 -2 -23 -15 -23 -14 0 -15 2 -4 9 16 11 6 31 -16 31 -11 0 -14 -7
-10 -22 3 -13 1 -32 -3 -43 -6 -15 -9 -7 -9 28 -1 47 0 48 27 45 19 -2 28 -9
30 -25z m-3898 -18 c0 -19 -4 -35 -10 -35 -5 0 -10 16 -10 35 0 19 5 35 10 35
6 0 10 -16 10 -35z m1656 3 c-8 -5 -7 -13 2 -29 11 -17 11 -20 1 -17 -15 5
-28 46 -21 65 3 9 7 9 17 0 9 -9 10 -14 1 -19z m2530 0 c-8 -5 -7 -13 2 -29
11 -18 11 -20 0 -17 -7 3 -14 15 -16 27 -3 16 -9 21 -24 19 -30 -4 -34 -26 -6
-37 23 -10 23 -10 1 -10 -13 -1 -24 7 -28 19 -9 27 1 40 31 40 13 0 24 5 24
10 0 6 6 5 14 -2 10 -9 11 -15 2 -20z m-5191 -18 c0 -29 -32 -41 -41 -16 -9
24 4 48 23 44 12 -2 18 -12 18 -28z m143 13 c2 -8 -5 -13 -17 -13 -25 0 -28
-17 -3 -23 14 -4 14 -5 1 -6 -22 -1 -41 23 -33 43 7 19 45 18 52 -1z m897 8
c-19 -8 -19 -8 3 -15 27 -9 24 -30 -4 -33 -18 -3 -18 -2 1 6 19 8 19 8 -3 20
-25 13 -21 31 6 30 14 0 13 -2 -3 -8z m62 2 c-18 -5 -17 -6 2 -20 25 -17 19
-33 -12 -32 -17 1 -18 2 -4 6 21 5 23 23 2 23 -8 0 -15 7 -15 15 0 9 9 15 23
14 18 -1 19 -2 4 -6z m56 -40 c6 2 14 14 18 28 6 22 7 21 8 -7 1 -26 -3 -31
-21 -30 -17 1 -23 7 -24 26 -1 23 -1 23 3 2 3 -13 10 -21 16 -19z m95 30 c2
-8 -5 -13 -17 -13 -25 0 -28 -17 -3 -23 14 -4 14 -5 1 -6 -22 -1 -41 23 -33
43 7 19 45 18 52 -1z m38 8 c-18 -7 -18 -8 -3 -14 26 -10 21 -37 -5 -36 -17 1
-19 2 -5 6 21 5 23 23 2 23 -8 0 -15 7 -15 15 0 9 9 15 23 14 20 0 20 -1 3 -8z
m807 -38 c6 2 14 14 18 28 6 22 7 21 8 -7 1 -26 -3 -31 -21 -30 -17 1 -23 7
-24 26 -1 23 -1 23 3 2 3 -13 10 -21 16 -19z m275 30 c2 -8 -5 -13 -17 -13
-25 0 -28 -17 -3 -23 14 -4 14 -5 1 -6 -22 -1 -41 23 -33 43 7 19 45 18 52 -1z
m62 -25 c0 -24 -4 -38 -8 -32 -4 6 -15 13 -24 17 -18 6 -24 37 -11 50 3 4 15
7 25 7 15 0 18 -8 18 -42z m47 -5 c6 -2 13 8 16 24 4 26 4 26 6 -5 1 -29 -2
-33 -21 -30 -18 2 -23 10 -25 33 -2 27 -1 28 5 6 4 -14 13 -26 19 -28z m91 30
c2 -8 -5 -13 -17 -13 -25 0 -28 -17 -3 -23 16 -4 16 -5 -1 -6 -20 -1 -32 22
-23 45 7 18 37 15 44 -3z m39 10 c-18 -5 -17 -6 2 -20 25 -17 19 -33 -12 -32
-17 1 -18 2 -4 6 21 5 23 23 2 23 -16 0 -20 12 -8 23 3 4 13 6 22 6 12 -1 11
-3 -2 -6z m100 0 c-18 -5 -17 -6 2 -20 25 -17 19 -33 -12 -32 -17 1 -18 2 -4
6 21 5 23 23 2 23 -8 0 -15 7 -15 15 0 9 9 15 23 14 18 -1 19 -2 4 -6z m850
-40 c-4 -17 -4 -17 -12 0 -4 9 -4 25 0 35 8 16 8 16 12 0 3 -10 3 -26 0 -35z
m38 38 c-19 -8 -19 -8 3 -15 29 -10 23 -30 -9 -33 l-24 -2 25 9 25 8 -22 7
c-33 10 -28 36 6 34 12 0 10 -3 -4 -8z m63 2 c-10 -2 -18 -13 -18 -23 0 -10 8
-21 18 -23 16 -4 16 -5 -1 -6 -20 -1 -32 21 -23 44 3 8 13 14 23 14 17 -1 17
-2 1 -6z m52 -43 c5 0 13 12 18 28 l10 27 1 -30 c1 -26 -3 -31 -24 -33 -22 -2
-25 2 -24 31 2 30 2 30 6 5 2 -16 8 -28 13 -28z m65 41 c-19 -8 -19 -8 3 -15
27 -9 24 -30 -4 -33 -18 -3 -18 -2 1 6 19 8 19 8 -3 20 -25 13 -21 31 6 30 14
0 13 -2 -3 -8z m62 2 c-18 -5 -17 -6 2 -20 25 -17 19 -33 -12 -32 -17 1 -18 2
-4 6 21 5 23 23 2 23 -8 0 -15 7 -15 15 0 9 9 15 23 14 18 -1 19 -2 4 -6z m40
-40 c-3 -10 -5 -2 -5 17 0 19 2 27 5 18 2 -10 2 -26 0 -35z m71 19 c4 -28 -24
-41 -44 -20 -20 20 -7 50 20 46 13 -2 22 -12 24 -26z m66 12 c9 -23 7 -34 -4
-34 -5 0 -10 9 -10 20 0 11 -4 20 -10 20 -5 0 -10 -9 -10 -19 0 -11 -4 -23
-10 -26 -6 -4 -10 7 -10 24 0 26 4 31 24 31 13 0 27 -7 30 -16z m43 9 c-18 -5
-17 -6 2 -20 25 -17 19 -33 -12 -32 -17 1 -18 2 -4 6 21 5 23 23 2 23 -8 0
-15 7 -15 15 0 9 9 15 23 14 18 -1 19 -2 4 -6z m948 -23 c0 -33 -36 -34 -50
-2 -12 27 -25 29 -25 3 0 -11 -4 -23 -10 -26 -6 -4 -10 6 -10 24 0 30 1 30 48
28 43 -2 47 -4 47 -27z m25 -10 c0 -22 -3 -40 -8 -40 -4 0 -6 18 -4 40 2 22 6
40 8 40 2 0 4 -18 4 -40z m68 23 c2 -8 -5 -13 -17 -13 -28 0 -27 -17 2 -23
l22 -4 -23 -2 c-25 -1 -38 20 -28 45 7 18 37 15 44 -3z m139 10 c-18 -5 -17
-6 2 -20 25 -17 19 -33 -12 -32 -17 1 -18 2 -4 6 21 5 23 23 2 23 -16 0 -20
12 -8 23 3 4 13 6 22 6 12 -1 11 -3 -2 -6z"/>
<path d="M4090 5170 c0 -30 1 -30 55 -30 54 0 55 0 55 30 0 30 -1 30 -55 30
-54 0 -55 0 -55 -30z"/>
<path d="M5503 5193 c15 -2 37 -2 50 0 12 2 0 4 -28 4 -27 0 -38 -2 -22 -4z"/>
<path d="M5480 5125 c0 -35 0 -35 45 -35 45 0 45 0 45 35 0 35 0 35 -45 35
-45 0 -45 0 -45 -35z"/>
<path d="M1732 5188 c-17 -17 -15 -64 4 -83 20 -20 35 -15 54 17 27 48 -21
103 -58 66z m38 -38 c0 -11 -7 -20 -15 -20 -15 0 -21 21 -8 33 12 13 23 7 23
-13z"/>
<path d="M591 5161 c-15 -27 10 -47 39 -31 21 11 21 12 4 31 -22 24 -31 24
-43 0z"/>
<path d="M914 5149 c-10 -17 13 -36 27 -22 12 12 4 33 -11 33 -5 0 -12 -5 -16
-11z"/>
<path d="M3140 5176 c0 -10 9 -16 21 -16 24 0 21 23 -4 28 -10 2 -17 -3 -17
-12z"/>
<path d="M4360 5156 c0 -39 18 -48 41 -20 15 18 2 47 -25 52 -12 3 -16 -4 -16
-32z"/>
<path d="M850 5140 c0 -11 7 -20 15 -20 8 0 15 9 15 20 0 11 -7 20 -15 20 -8
0 -15 -9 -15 -20z"/>
<path d="M2108 5153 c7 -3 16 -2 19 1 4 3 -2 6 -13 5 -11 0 -14 -3 -6 -6z"/>
<path d="M3228 5153 c7 -3 16 -2 19 1 4 3 -2 6 -13 5 -11 0 -14 -3 -6 -6z"/>
<path d="M3280 5140 c0 -11 7 -20 15 -20 8 0 15 9 15 20 0 11 -7 20 -15 20 -8
0 -15 -9 -15 -20z"/>
<path d="M3428 5153 c7 -3 16 -2 19 1 4 3 -2 6 -13 5 -11 0 -14 -3 -6 -6z"/>
<path d="M4800 5139 c0 -24 23 -21 28 4 2 10 -3 17 -12 17 -10 0 -16 -9 -16
-21z"/>
<path d="M5854 5149 c-10 -17 13 -36 27 -22 12 12 4 33 -11 33 -5 0 -12 -5
-16 -11z"/>
<path d="M5958 5153 c7 -3 16 -2 19 1 4 3 -2 6 -13 5 -11 0 -14 -3 -6 -6z"/>
<path d="M5956 4922 c-3 -6 -1 -14 5 -17 15 -10 25 3 12 16 -7 7 -13 7 -17 1z"/>
<path d="M6505 4910 c3 -5 10 -10 16 -10 5 0 9 5 9 10 0 6 -7 10 -16 10 -8 0
-12 -4 -9 -10z"/>
<path d="M145 4891 c-3 -5 -1 -12 5 -16 5 -3 10 1 10 9 0 18 -6 21 -15 7z"/>
<path d="M535 4891 c-6 -11 9 -23 19 -14 9 9 7 23 -3 23 -6 0 -12 -4 -16 -9z"/>
<path d="M6082 4867 c-21 -22 -22 -32 -22 -201 0 -175 0 -177 25 -201 24 -25
27 -25 190 -25 172 0 215 8 229 45 3 9 6 92 6 184 l0 167 -28 27 -28 27 -175
0 c-171 0 -176 -1 -197 -23z m412 -43 c3 -9 6 -85 6 -169 0 -211 12 -199 -209
-203 l-171 -3 -25 25 c-25 25 -25 28 -25 180 0 85 3 161 6 170 5 14 33 16 209
16 176 0 204 -2 209 -16z"/>
<path d="M6184 4737 c-3 -8 -4 -45 -2 -83 l3 -69 46 -3 c33 -2 51 2 63 13 18
18 21 51 6 60 -5 3 -7 20 -3 37 5 23 2 34 -12 45 -25 17 -94 17 -101 0z m91
-37 c0 -10 -12 -16 -32 -18 -28 -3 -33 0 -33 18 0 18 5 21 33 18 20 -2 32 -8
32 -18z m-11 -46 c9 -3 16 -14 16 -24 0 -19 -19 -30 -51 -30 -14 0 -19 7 -19
30 0 31 17 38 54 24z"/>
<path d="M6346 4730 c18 -64 21 -92 14 -122 -5 -18 -12 -44 -15 -58 l-7 -25
21 23 c39 45 40 139 0 184 l-20 23 7 -25z"/>
<path d="M5890 4870 c0 -5 5 -10 10 -10 6 0 10 5 10 10 0 6 -4 10 -10 10 -5 0
-10 -4 -10 -10z"/>
<path d="M596 4841 c-4 -5 -2 -12 3 -15 5 -4 12 -2 15 3 4 5 2 12 -3 15 -5 4
-12 2 -15 -3z"/>
<path d="M200 4830 c0 -5 5 -10 10 -10 6 0 10 5 10 10 0 6 -4 10 -10 10 -5 0
-10 -4 -10 -10z"/>
<path d="M5825 4820 c3 -5 8 -10 11 -10 2 0 4 5 4 10 0 6 -5 10 -11 10 -5 0
-7 -4 -4 -10z"/>
<path d="M260 4780 c0 -5 5 -10 10 -10 6 0 10 5 10 10 0 6 -4 10 -10 10 -5 0
-10 -4 -10 -10z"/>
<path d="M655 4780 c-3 -5 -1 -10 4 -10 6 0 11 5 11 10 0 6 -2 10 -4 10 -3 0
-8 -4 -11 -10z"/>
<path d="M5760 4780 c0 -5 5 -10 11 -10 5 0 7 5 4 10 -3 6 -8 10 -11 10 -2 0
-4 -4 -4 -10z"/>
<path d="M710 4720 c0 -5 5 -10 10 -10 6 0 10 5 10 10 0 6 -4 10 -10 10 -5 0
-10 -4 -10 -10z"/>
<path d="M3405 4720 l2229 -5 1 -50 0 -50 -2235 0 -2235 0 0 52 c0 28 -3 49
-7 46 -12 -6 -10 -91 2 -98 6 -4 10 -72 10 -170 0 -147 2 -164 18 -168 16 -4
16 -5 0 -6 -20 -1 -19 8 -19 -496 0 -115 1 -526 1 -913 l0 -703 33 -34 33 -34
2165 5 c1494 4 2173 9 2192 16 60 23 57 -30 57 1117 l0 1050 -82 4 -83 3 83 2
82 2 0 208 c0 148 -3 211 -12 220 -9 9 -517 11 -2238 10 l-2225 -3 2230 -5z
m-1954 -303 c28 -7 21 -41 -9 -45 -20 -3 -22 1 -21 40 1 24 3 36 6 27 2 -10
13 -19 24 -22z m113 19 c4 9 9 14 12 11 3 -3 1 -14 -5 -26 -7 -13 -8 -22 -1
-26 5 -3 10 -11 10 -17 0 -6 -7 -5 -17 3 -13 11 -17 11 -20 2 -3 -7 -9 -13
-14 -13 -6 0 -5 9 2 21 8 15 8 24 0 32 -19 19 -12 31 8 13 17 -16 19 -16 25 0z
m114 -13 c3 -18 -2 -23 -17 -23 -12 0 -21 -6 -21 -15 0 -27 -20 -15 -21 13 0
26 -1 26 -14 -8 -16 -41 -20 -17 -5 27 9 25 16 30 43 29 25 -1 33 -6 35 -23z
m329 15 c9 -15 11 -68 2 -68 -4 0 -9 7 -13 15 -7 20 -24 19 -29 -2 -3 -10 -5
1 -6 25 -1 35 2 42 18 42 11 0 23 -6 28 -12z m263 2 c0 -5 -5 -10 -11 -10 -5
0 -7 5 -4 10 3 6 8 10 11 10 2 0 4 -4 4 -10z m-950 -29 c0 -20 6 -31 18 -34
10 -3 6 -5 -10 -6 -25 -1 -28 2 -28 34 0 19 5 35 10 35 6 0 10 -13 10 -29z
m619 -2 c-10 -6 -10 -11 0 -23 11 -13 11 -16 -3 -16 -9 0 -16 8 -16 20 0 13
-7 20 -20 20 -25 0 -27 -27 -2 -33 13 -4 11 -5 -5 -6 -18 -1 -23 4 -23 24 0
20 5 25 25 25 14 0 25 5 25 11 0 8 5 7 15 -1 12 -10 13 -15 4 -21z m362 24 c5
-48 3 -63 -8 -63 -7 0 -14 10 -14 23 -2 21 -2 21 -6 1 -3 -16 -12 -21 -41 -22
-26 0 -31 2 -18 7 18 7 18 8 3 14 -25 9 -21 27 6 27 16 0 18 -3 9 -9 -11 -7
-11 -9 2 -14 10 -4 16 -1 16 8 0 8 7 15 15 15 8 0 15 5 15 10 0 11 20 14 21 3z
m-893 -40 c3 -19 -1 -23 -22 -23 -29 0 -37 30 -8 31 15 0 14 2 -3 10 -18 8
-18 8 5 6 17 -1 26 -9 28 -24z m305 15 c-6 -7 -13 -20 -16 -28 -3 -9 -6 -3 -6
13 -1 19 4 27 15 27 12 0 14 -4 7 -12z m62 -13 c0 -23 -34 -33 -45 -14 -13 20
1 40 24 37 13 -2 21 -10 21 -23z m25 -10 c0 -27 -4 -35 -17 -34 -11 0 -13 3
-5 6 6 2 12 18 12 34 0 16 2 29 5 29 3 0 5 -16 5 -35z m60 20 c0 -8 -8 -15
-17 -16 -15 0 -15 -2 2 -9 19 -8 19 -9 -2 -9 -25 -1 -37 13 -29 34 7 20 46 19
46 0z m210 0 c0 -8 -8 -15 -17 -16 -15 0 -15 -2 2 -9 19 -8 19 -9 -2 -9 -25
-1 -37 13 -29 34 7 20 46 19 46 0z m124 0 c8 -22 -9 -33 -48 -32 -23 1 -41 -4
-44 -11 -8 -25 -22 -11 -22 22 l0 34 54 0 c33 0 57 -5 60 -13z m239 1 c5 -8
10 -7 16 4 18 28 19 5 1 -29 l-18 -35 -7 32 c-7 33 -35 45 -35 15 0 -13 -9
-19 -34 -20 -36 -3 -51 8 -43 31 7 17 109 19 120 2z m-926 -12 c-3 -3 -12 -4
-19 -1 -8 3 -5 6 6 6 11 1 17 -2 13 -5z m3083 -115 c-239 -3 -1099 -6 -1910
-5 -1034 1 -1269 2 -785 6 380 3 1239 5 1910 6 809 0 1074 -2 785 -7z m782 4
c-62 -2 -161 -2 -220 0 -59 1 -8 3 113 3 121 0 169 -2 107 -3z m-1878 -185
c20 -39 20 -47 0 -87 -16 -32 -18 -32 -65 0 -26 18 -28 18 -65 0 -40 -20 -60
-19 -47 2 4 6 6 29 4 50 -3 57 10 67 89 67 67 0 69 -1 84 -32z m896 13 c15
-30 12 -97 -6 -115 -11 -11 -35 -16 -79 -16 -78 0 -95 14 -95 75 0 62 17 75
100 75 58 0 71 -3 80 -19z m-2542 -7 c44 -30 18 -114 -35 -114 -22 0 -53 39
-53 65 0 26 31 65 53 65 7 0 23 -7 35 -16z m537 5 c4 7 13 4 26 -7 23 -23 25
-102 1 -102 -11 0 -12 9 -7 39 5 33 4 39 -14 44 -18 4 -20 -1 -23 -42 -4 -61
-22 -59 -26 3 -4 62 3 83 22 67 10 -8 16 -9 21 -2z m-1026 -28 c28 -22 24 -41
-13 -61 -47 -24 -95 22 -62 59 23 26 44 26 75 2z m76 -15 c0 -15 -4 -21 -9
-16 -5 5 -6 16 -3 24 9 22 12 20 12 -8z m148 -6 c7 0 6 4 -3 10 -9 6 -10 10
-3 10 13 0 28 -19 20 -26 -10 -10 -58 -14 -53 -5 4 5 2 12 -4 16 -5 3 -10 -2
-11 -12 0 -13 -2 -14 -6 -4 -3 8 3 20 13 28 15 11 19 11 27 -2 4 -8 13 -15 20
-15z m-77 -4 c2 -12 1 -13 -3 -1 -2 8 -9 15 -15 15 -5 0 -8 -6 -5 -13 3 -8 -1
-14 -8 -14 -11 0 -11 5 -4 19 12 22 33 19 35 -6z m431 -13 c-3 -10 -5 -4 -5
12 0 17 2 24 5 18 2 -7 2 -21 0 -30z m656 -3 c3 -11 1 -18 -4 -14 -5 3 -9 12
-9 20 0 8 -4 13 -8 10 -5 -3 -9 1 -9 9 0 20 23 0 30 -25z m44 3 c-3 -10 -5 -4
-5 12 0 17 2 24 5 18 2 -7 2 -21 0 -30z m25 8 c2 -17 1 -28 -4 -25 -8 5 -12
54 -4 54 2 0 6 -13 8 -29z m45 -8 c-3 -10 -5 -4 -5 12 0 17 2 24 5 18 2 -7 2
-21 0 -30z m31 13 c-1 -14 -6 -23 -9 -20 -10 6 -7 44 3 44 4 0 7 -11 6 -24z
m843 -26 c16 0 23 32 8 41 -10 6 -11 9 -1 9 19 0 26 -28 12 -45 -22 -26 -40
-18 -39 18 2 30 2 30 6 5 2 -16 9 -28 14 -28z m906 13 c-3 -10 -5 -4 -5 12 0
17 2 24 5 18 2 -7 2 -21 0 -30z m33 22 c0 -8 -4 -15 -8 -15 -5 0 -9 7 -9 15 0
8 4 15 9 15 4 0 8 -7 8 -15z m-2553 -2 c-4 -3 -2 -12 4 -19 7 -8 6 -14 -2 -20
-7 -4 -9 -3 -5 4 3 5 1 12 -6 14 -11 4 -3 28 9 28 4 0 3 -3 0 -7z m40 0 c-4
-3 -2 -12 4 -19 10 -13 -6 -32 -18 -20 -4 3 0 6 8 6 12 0 12 2 0 9 -12 8 -8
31 6 31 4 0 3 -3 0 -7z m773 -16 c0 -7 -4 -6 -10 3 -8 13 -10 13 -10 -2 0 -9
6 -19 13 -21 9 -4 9 -6 0 -6 -16 -1 -26 17 -19 35 6 17 26 10 26 -9z m25 -1
c0 -15 -4 -21 -9 -16 -5 5 -6 16 -3 24 9 22 12 20 12 -8z m142 17 c-4 -3 -2
-12 4 -19 10 -13 -6 -32 -18 -20 -4 3 0 6 8 6 12 0 12 2 0 9 -12 8 -8 31 6 31
4 0 3 -3 0 -7z m33 -3 c0 -5 -2 -10 -4 -10 -3 0 -8 5 -11 10 -3 6 -1 10 4 10
6 0 11 -4 11 -10z m26 1 c-4 -5 0 -11 6 -14 10 -3 10 -8 -1 -18 -8 -8 -11 -9
-7 -2 3 6 2 14 -4 18 -10 6 -5 25 6 25 3 0 3 -4 0 -9z m799 -1 c-3 -5 -1 -10
6 -10 7 0 10 -3 6 -6 -9 -9 -28 6 -22 17 4 5 8 9 11 9 3 0 2 -4 -1 -10z m124
-18 c-1 -15 -2 -15 -6 1 -2 9 -9 14 -15 11 -7 -4 -8 -2 -4 5 10 15 26 4 25
-17z m27 19 c-4 -5 0 -11 6 -14 10 -3 10 -8 -1 -18 -8 -8 -11 -9 -7 -2 3 6 2
14 -4 18 -10 6 -5 25 6 25 3 0 3 -4 0 -9z m630 -26 c-7 -19 -31 -15 -32 6 -1
9 1 10 3 2 8 -22 26 -14 20 8 -4 16 -3 19 5 11 6 -6 8 -18 4 -27z m64 12 c0
-7 -4 -6 -11 3 -9 12 -10 10 -5 -9 3 -17 2 -21 -6 -13 -13 13 -2 46 12 37 5
-3 10 -12 10 -18z m25 -1 c0 -15 -4 -21 -9 -16 -5 5 -6 16 -3 24 9 22 12 20
12 -8z m37 -1 c3 -13 1 -22 -3 -19 -9 5 -13 44 -5 44 2 0 6 -11 8 -25z m-2661
0 l9 20 -3 -20 c-2 -22 -21 -24 -23 -3 0 7 1 6 4 -2 4 -12 7 -11 13 5z m43
-18 c7 -6 6 -7 -4 -4 -8 2 -16 12 -17 23 -2 13 -1 15 4 4 3 -8 11 -19 17 -23z
m36 23 c8 -5 11 -10 5 -10 -5 0 -17 5 -25 10 -8 5 -10 10 -5 10 6 0 17 -5 25
-10z m487 -12 c-3 -8 -6 -5 -6 6 -1 11 2 17 5 13 3 -3 4 -12 1 -19z m210 -15
c-3 -10 -5 -4 -5 12 0 17 2 24 5 18 2 -7 2 -21 0 -30z m35 13 c7 4 8 2 4 -5
-10 -15 -26 -4 -25 17 1 15 2 15 6 -1 2 -9 9 -14 15 -11z m42 -9 c7 -6 6 -7
-4 -4 -8 2 -16 12 -17 23 -2 13 -1 15 4 4 3 -8 11 -19 17 -23z m723 11 c-3 -8
-6 -5 -6 6 -1 11 2 17 5 13 3 -3 4 -12 1 -19z m65 -9 c5 -3 -6 -6 -24 -6 -18
0 -27 2 -19 5 11 4 11 6 0 14 -11 8 -10 9 4 4 10 -3 17 0 18 7 0 7 3 6 6 -3 3
-8 10 -18 15 -21z m46 16 c9 17 11 17 12 4 0 -17 -23 -32 -34 -22 -3 4 -6 13
-5 22 0 12 2 11 8 -4 8 -19 8 -19 19 0z m99 -7 c-3 -8 -6 -5 -6 6 -1 11 2 17
5 13 3 -3 4 -12 1 -19z m33 -8 c5 0 11 7 13 15 4 11 4 10 3 -2 -2 -22 -30 -24
-32 -3 0 9 1 10 3 3 3 -7 8 -13 13 -13z m732 -12 c-6 -6 -7 0 -4 19 5 21 7 23
10 9 2 -10 0 -22 -6 -28z m153 11 c-4 -5 -12 -9 -18 -8 -8 0 -8 2 1 6 10 4 9
9 -5 20 -17 13 -16 13 5 3 12 -6 20 -15 17 -21z m-973 6 c0 -5 -5 -10 -12 -11
-7 -2 -6 -1 1 3 8 4 7 8 -2 15 -11 8 -11 9 -1 6 8 -2 14 -8 14 -13z m932 -151
c14 -13 16 -55 16 -305 0 -250 -2 -289 -15 -289 -12 0 -15 14 -15 70 l0 70
-1720 0 -1720 0 0 -110 0 -110 1708 -2 1707 -3 -1707 -2 -1708 -3 0 -95 0 -95
1643 -2 1642 -3 -1642 -2 -1643 -3 0 -110 0 -110 583 -2 582 -3 -582 -2 -583
-3 0 -95 c0 -92 1 -95 23 -95 21 0 22 3 22 87 l0 88 37 3 c29 2 43 -3 73 -29
35 -31 36 -34 33 -91 l-3 -58 1628 0 1627 0 0 95 0 95 -1132 2 -1133 3 1133 2
1132 3 0 110 0 110 -72 2 -73 2 73 3 72 4 0 94 c0 69 -3 95 -12 96 -10 0 -10
2 -1 6 7 2 13 18 13 34 0 19 5 29 15 29 13 0 15 -68 15 -550 0 -537 0 -550
-20 -570 -20 -20 -33 -20 -1125 -20 -974 0 -1105 2 -1105 15 0 13 132 15 1108
17 l1107 3 3 103 3 102 -258 2 -258 3 258 2 257 3 0 95 0 95 -1720 0 -1720 0
0 -95 c0 -88 2 -95 20 -95 17 0 19 8 22 88 l3 87 41 3 c36 3 45 -1 73 -33 27
-31 31 -43 31 -90 l0 -55 503 -3 502 -2 -597 -3 -598 -2 0 -100 c0 -91 2 -100
21 -110 15 -9 186 -11 600 -8 488 2 579 1 579 -11 0 -11 -10 -12 -45 -8 -25 4
-305 7 -623 8 -317 0 -572 3 -567 5 7 3 9 296 7 859 -2 845 -2 855 18 875 20
20 29 20 1734 20 1545 0 1716 -2 1730 -16z m146 -112 c0 -10 -9 -25 -20 -35
-22 -18 -50 -23 -50 -8 0 21 13 41 26 41 8 0 14 5 14 10 0 6 7 10 15 10 8 0
15 -8 15 -18z m59 -31 c1 17 61 33 61 17 0 -5 4 -7 8 -4 5 3 9 -1 9 -9 0 -8
-9 -15 -19 -15 -10 0 -18 6 -18 13 0 9 -2 9 -8 0 -4 -6 -16 -13 -27 -15 -15
-2 -20 3 -22 22 l-2 25 8 -25 c6 -15 9 -18 10 -9z m124 6 c-5 -9 -3 -9 8 0 8
7 25 10 37 6 22 -5 22 -6 4 -19 -27 -19 -56 -11 -60 16 -2 14 0 20 7 15 6 -3
8 -12 4 -18z m240 -3 c-2 -7 -12 -10 -20 -7 -11 4 -14 2 -9 -5 11 -18 -10 -14
-30 6 -17 16 -18 16 -11 0 7 -19 -17 -26 -28 -8 -4 6 -17 4 -36 -5 -28 -15
-29 -15 -29 9 0 24 1 24 84 24 64 -1 83 -4 79 -14z m136 -1 c0 -12 -2 -14 -6
-4 -5 11 -7 11 -14 0 -7 -11 -9 -11 -9 -1 0 10 -4 10 -15 -2 -13 -13 -27 -14
-79 -7 -5 0 -3 7 3 14 6 8 34 15 66 16 47 1 55 -1 54 -16z m-195 -149 c21 -20
20 -63 -1 -86 -15 -16 -35 -18 -229 -18 -209 0 -213 0 -228 22 -9 12 -16 29
-16 38 0 9 7 26 16 38 15 22 19 22 229 22 181 0 216 -2 229 -16z m388 -1 c22
-20 23 -61 1 -85 -14 -16 -33 -18 -161 -18 -121 0 -148 3 -164 17 -22 20 -23
61 -1 85 14 16 33 18 161 18 121 0 148 -3 164 -17z m-4235 -217 c4 -8 26 -16
48 -18 l40 -3 0 -45 0 -45 -81 -3 -81 -3 -6 46 c-7 70 -1 85 39 85 18 0 37 -6
41 -14z m223 -51 c-7 -8 -10 -22 -6 -30 3 -9 2 -13 -4 -10 -14 9 -12 42 3 48
20 8 20 8 7 -8z m109 -22 c-1 -17 -3 -21 -6 -10 -2 9 -9 17 -15 17 -5 0 -8 -6
-5 -13 3 -7 -3 -13 -13 -13 -10 0 -16 6 -13 13 3 7 0 13 -5 13 -6 0 -13 -7
-15 -15 -4 -11 -4 -10 -3 2 1 12 10 18 28 18 15 1 30 4 34 8 12 12 14 8 13
-20z m99 2 c0 -14 -5 -25 -10 -25 -5 0 -6 5 -3 10 3 6 -2 11 -12 11 -17 1 -17
2 0 6 9 2 17 9 17 14 0 5 2 9 4 9 2 0 4 -11 4 -25z m3025 15 c-13 -5 -23 -16
-23 -25 0 -9 10 -20 23 -25 22 -10 22 -10 -3 -7 -43 4 -34 68 9 66 11 0 9 -3
-6 -9z m-3078 -9 c3 -6 -4 -15 -15 -21 -16 -8 -20 -8 -20 3 0 25 23 36 35 18z
m93 -13 c2 -8 -4 -15 -13 -15 -8 0 -15 4 -15 9 0 4 6 8 13 8 8 0 7 4 -3 11
-13 9 -13 10 0 6 8 -2 16 -10 18 -19z m32 12 c-10 -6 -11 -10 -2 -10 6 0 12
-5 12 -11 0 -8 -5 -8 -15 1 -16 13 -11 30 8 30 7 0 6 -4 -3 -10z m36 1 c-4 -5
-1 -11 6 -13 8 -3 6 -7 -5 -11 -17 -6 -24 12 -10 26 9 10 15 8 9 -2z m3069
-26 c0 -14 -2 -25 -6 -25 -8 0 -18 48 -11 55 9 8 15 -4 17 -30z m110 -1 c0
-12 -8 -20 -22 -22 -20 -3 -23 1 -23 27 0 27 2 30 23 22 12 -5 22 -17 22 -27z
m78 6 c-3 -11 0 -20 6 -20 6 0 11 6 11 14 0 21 20 30 33 17 9 -9 8 -11 -5 -6
-13 5 -18 2 -18 -10 0 -11 5 -15 15 -11 8 3 15 1 15 -4 0 -5 -15 -9 -32 -7
-28 2 -34 7 -36 31 -2 17 0 26 6 22 6 -3 8 -15 5 -26z m-275 -8 c2 -14 -2 -22
-12 -22 -19 0 -29 17 -22 36 8 22 30 12 34 -14z m51 6 c0 -22 -1 -22 -9 -3 -8
19 -8 19 -18 -5 -10 -23 -11 -24 -11 -3 -1 19 10 30 32 32 4 1 7 -9 6 -21z
m63 -3 c-2 -14 -6 -25 -8 -25 -2 0 -4 11 -4 25 0 14 4 25 9 25 4 0 6 -11 3
-25z m25 -12 c-3 -10 -5 -4 -5 12 0 17 2 24 5 18 2 -7 2 -21 0 -30z m113 12
c0 -18 -5 -25 -20 -25 -14 0 -20 6 -19 23 1 16 2 18 6 5 6 -24 23 -23 23 2 0
11 2 20 5 20 3 0 5 -11 5 -25z m108 5 c-7 -11 -15 -15 -17 -9 -2 6 3 15 10 20
20 12 21 11 7 -11z m43 11 c-9 -6 -10 -11 -2 -15 17 -11 13 -26 -6 -26 -15 0
-16 2 -3 10 10 6 11 10 3 10 -7 0 -13 7 -13 15 0 8 8 15 18 15 13 0 14 -2 3
-9z m-3924 -145 c4 -8 26 -16 48 -18 39 -3 40 -4 40 -43 l0 -40 -85 0 -85 0
-3 44 c-2 24 -1 50 2 57 7 19 73 18 83 0z m3562 -32 c39 -49 16 -134 -36 -134
-14 0 -13 3 5 16 32 22 27 29 -23 29 -49 0 -62 -19 -22 -35 17 -7 18 -9 5 -9
-29 -1 -58 36 -58 73 0 48 33 86 75 86 24 0 39 -7 54 -26z m-3346 -45 c-8 -29
-13 -23 -13 14 0 22 3 28 9 18 5 -7 6 -22 4 -32z m46 9 c-1 -18 -3 -25 -6 -15
-4 15 -7 16 -21 5 -12 -10 -12 -7 2 15 23 35 26 34 25 -5z m365 24 c-7 -4 -14
-18 -17 -32 -4 -21 -4 -20 -6 8 -1 24 3 32 17 32 11 0 13 -3 6 -8z m61 -25
c11 15 16 16 27 5 11 -11 10 -12 -4 -7 -10 4 -18 3 -18 -3 0 -6 8 -12 18 -15
9 -2 2 -4 -15 -4 -30 0 -33 2 -32 31 l2 31 4 -28 c4 -27 5 -28 18 -10z m-100
-7 c1 -11 -2 -20 -7 -20 -4 0 -8 12 -8 27 0 30 13 24 15 -7z m-285 0 c0 -11
-7 -20 -15 -20 -8 0 -15 5 -15 11 0 5 5 7 10 4 6 -3 10 -2 10 4 0 5 -6 12 -12
14 -8 3 -6 6 5 6 11 1 17 -6 17 -19z m47 -5 c1 -16 1 -16 -3 -2 -3 9 -9 17
-14 17 -5 0 -11 -8 -13 -17 -3 -13 -5 -12 -6 5 -1 30 33 27 36 -3z m43 5 c0
-13 -6 -20 -17 -19 -11 0 -13 3 -5 6 6 2 12 11 12 19 0 8 2 14 5 14 3 0 5 -9
5 -20z m40 16 c0 -2 -7 -6 -15 -10 -8 -3 -15 -1 -15 4 0 6 7 10 15 10 8 0 15
-2 15 -4z m30 -6 c-13 -9 -13 -11 0 -20 13 -8 12 -10 -2 -10 -11 0 -18 8 -18
20 0 12 7 20 18 20 14 0 15 -2 2 -10z m50 -7 c0 -10 -4 -14 -8 -8 -4 6 -11 13
-16 18 -5 4 -2 7 7 7 10 0 17 -8 17 -17z m50 -2 c0 -10 -9 -21 -20 -24 -16 -4
-20 0 -20 19 0 17 6 24 20 24 13 0 20 -7 20 -19z m87 -13 c-3 -7 -5 -2 -5 12
0 14 2 19 5 13 2 -7 2 -19 0 -25z m103 28 c0 -3 -4 -8 -10 -11 -5 -3 -10 -1
-10 4 0 6 5 11 10 11 6 0 10 -2 10 -4z m2914 -5 c4 -5 -3 -7 -14 -4 -23 6 -26
13 -6 13 8 0 17 -4 20 -9z m149 -4 c3 -8 1 -20 -4 -28 -6 -10 -9 -7 -9 14 0
29 5 35 13 14z m-49 -35 c18 -3 18 -2 5 14 -12 15 -12 17 1 12 8 -2 16 -12 18
-21 2 -12 -4 -15 -27 -15 -27 1 -31 5 -30 27 1 22 2 23 7 6 4 -11 16 -22 26
-23z m72 10 c-18 -16 -18 -16 -6 6 6 13 14 21 18 18 3 -4 -2 -14 -12 -24z
m-3406 8 c0 -5 -8 -10 -17 -10 -15 0 -16 2 -3 10 19 12 20 12 20 0z m325 0
c-3 -5 -12 -10 -18 -10 -7 0 -6 4 3 10 19 12 23 12 15 0z m2963 -13 c4 -18
-23 -24 -33 -7 -4 6 1 7 12 3 16 -6 17 -5 3 12 -13 16 -13 18 0 13 8 -2 16
-12 18 -21z m182 3 c0 -21 -24 -28 -35 -10 -4 6 1 7 12 3 16 -6 16 -5 4 10
-12 15 -11 17 3 17 9 0 16 -8 16 -20z m40 3 c0 -14 -2 -15 -9 -4 -7 11 -9 11
-14 0 -4 -10 -6 -9 -6 4 -1 9 6 17 14 17 8 0 15 -8 15 -17z m90 -9 c0 -21 -3
-23 -19 -14 -11 5 -26 7 -34 4 -8 -3 -18 -1 -22 5 -4 7 1 8 12 4 15 -6 16 -4
6 8 -10 13 -7 15 22 16 31 1 35 -2 35 -23z m63 9 c-4 -10 -9 -11 -19 -2 -8 7
-18 9 -21 5 -4 -4 -1 -11 7 -16 9 -6 10 -10 3 -10 -15 0 -26 17 -19 29 10 15
55 10 49 -6z m-428 -13 c-3 -5 -14 -10 -23 -9 -14 0 -13 2 3 9 27 11 27 11 20
0z m-3638 -92 c38 -26 46 -46 41 -109 l-3 -44 -70 0 -70 0 -3 74 c-2 41 -1 80
2 88 8 20 66 15 103 -9z m197 -110 c7 -5 5 -8 -6 -8 -14 0 -18 8 -17 33 2 27
2 28 6 7 3 -14 10 -28 17 -32z m23 15 c-3 -10 -5 -4 -5 12 0 17 2 24 5 18 2
-7 2 -21 0 -30z m46 30 c-27 -5 -30 -28 -5 -42 9 -6 12 -11 6 -11 -18 0 -37
28 -30 45 3 8 16 14 28 14 l23 -2 -22 -4z m47 -3 c-13 -9 -13 -10 0 -10 13 0
13 -1 0 -10 -13 -9 -13 -11 0 -20 13 -8 12 -10 -2 -10 -13 0 -18 8 -18 30 0
22 5 30 18 30 14 0 15 -2 2 -10z m45 -7 c7 -17 8 -16 15 2 7 17 9 16 9 -9 1
-28 0 -28 -18 -12 -18 17 -19 17 -24 -1 -3 -12 -5 -9 -6 10 -1 30 13 36 24 10z
m68 10 c-27 -5 -30 -28 -5 -42 9 -6 12 -11 6 -11 -18 0 -37 28 -30 45 3 8 16
14 28 14 l23 -2 -22 -4z m47 -3 c-13 -9 -13 -10 0 -10 13 0 13 -1 0 -10 -13
-9 -13 -11 0 -20 13 -8 12 -10 -2 -10 -13 0 -18 8 -18 30 0 22 5 30 18 30 14
0 15 -2 2 -10z m147 -27 c-3 -10 -5 -4 -5 12 0 17 2 24 5 18 2 -7 2 -21 0 -30z
m2910 15 c50 -47 15 -138 -53 -138 -63 0 -100 94 -54 140 27 27 77 26 107 -2z
m-3010 -20 c-3 -8 -6 -5 -6 6 -1 11 2 17 5 13 3 -3 4 -12 1 -19z m30 0 c-3 -8
-6 -5 -6 6 -1 11 2 17 5 13 3 -3 4 -12 1 -19z m20 0 c-3 -8 -6 -5 -6 6 -1 11
2 17 5 13 3 -3 4 -12 1 -19z m26 2 c3 -11 1 -18 -4 -14 -5 3 -9 12 -9 20 0 20
7 17 13 -6z m3067 -25 c8 0 15 -8 16 -18 1 -12 1 -13 -3 -2 -2 8 -9 15 -15 15
-5 0 -8 -7 -4 -15 3 -8 1 -15 -4 -15 -6 0 -10 6 -10 14 0 8 -8 13 -17 11 -10
-1 -12 0 -5 2 6 3 12 10 12 16 0 8 3 8 8 2 4 -5 14 -10 22 -10z m79 -12 c0
-25 -1 -25 -8 -8 -5 11 -7 23 -4 28 8 14 13 7 12 -20z m-32 10 c-4 -3 -1 -13
6 -22 11 -14 10 -14 -5 -2 -21 15 -23 31 -6 31 6 0 8 -3 5 -7z m139 -17 c2
-12 1 -13 -3 -1 -2 8 -9 15 -15 15 -5 0 -8 -7 -4 -15 3 -8 1 -15 -4 -15 -11 0
-13 23 -3 34 11 11 28 1 29 -18z m34 20 c0 -3 -4 -8 -10 -11 -5 -3 -10 -1 -10
4 0 6 5 11 10 11 6 0 10 -2 10 -4z m-80 -26 c0 -5 -5 -10 -11 -10 -5 0 -7 5
-4 10 3 6 8 10 11 10 2 0 4 -4 4 -10z m-3592 -156 c2 -22 0 -26 -8 -14 -9 13
-11 13 -20 0 -8 -12 -10 -10 -10 11 0 49 33 52 38 3z m40 29 c-10 -2 -18 -9
-18 -14 0 -5 8 -10 18 -10 16 -1 16 -2 -1 -6 -9 -2 -15 -9 -12 -14 4 -5 1 -9
-4 -9 -12 0 -15 43 -4 53 3 4 13 6 22 6 13 -1 13 -2 -1 -6z m94 -23 c-2 -16
-6 -30 -8 -30 -2 0 -4 14 -4 30 0 17 4 30 8 30 5 0 7 -13 4 -30z m145 24 c-3
-3 -12 -4 -19 -1 -8 3 -5 6 6 6 11 1 17 -2 13 -5z m-187 -8 c0 -3 -4 -8 -10
-11 -5 -3 -10 -1 -10 4 0 6 5 11 10 11 6 0 10 -2 10 -4z m77 -30 c-4 -9 -12
-16 -19 -16 -10 0 -9 3 1 9 9 6 11 16 7 27 -6 15 -4 16 5 7 6 -6 9 -19 6 -27z
m49 19 c8 10 14 14 14 8 0 -13 -30 -39 -30 -27 0 5 -5 2 -10 -6 -7 -11 -10 -8
-10 15 1 27 2 28 12 11 11 -19 11 -19 24 -1z m204 -10 c0 -14 -4 -25 -10 -25
-5 0 -7 7 -4 15 4 8 1 15 -4 15 -6 0 -13 -8 -15 -17 -4 -14 -5 -13 -6 4 -1 13
6 23 17 26 9 3 18 5 20 6 1 0 2 -10 2 -24z m-80 4 c0 -5 -4 -8 -9 -4 -5 3 -12
-3 -14 -12 -4 -14 -5 -13 -6 5 -1 13 5 22 14 22 8 0 15 -5 15 -11z m28 -20
c-3 -8 -7 -3 -11 10 -4 17 -3 21 5 13 5 -5 8 -16 6 -23z m-265 9 c3 -8 -4 -13
-19 -13 -28 0 -32 11 -6 18 9 3 18 5 18 6 1 0 4 -5 7 -11z m174 6 c-3 -3 -12
-4 -19 -1 -8 3 -5 6 6 6 11 1 17 -2 13 -5z m3050 -16 c50 -47 17 -128 -52
-128 -22 0 -43 8 -55 20 -12 12 -20 33 -20 55 0 68 77 101 127 53z m111 -35
c-10 -2 -18 -13 -18 -23 0 -10 8 -21 18 -23 16 -4 16 -5 -1 -6 -20 -1 -32 21
-23 44 3 8 13 14 23 14 17 -1 17 -2 1 -6z m132 -23 c0 -22 -5 -30 -17 -29 -11
0 -13 3 -5 6 6 2 12 16 12 29 0 13 2 24 5 24 3 0 5 -13 5 -30z m37 23 c-9 -2
-14 -9 -11 -15 4 -7 2 -8 -5 -4 -15 10 -4 26 17 25 15 -1 15 -2 -1 -6z m133
-23 c0 -19 -5 -30 -14 -30 -21 0 -30 20 -17 33 9 9 11 8 6 -5 -4 -11 -2 -18 4
-18 6 0 11 11 11 25 0 14 2 25 5 25 3 0 5 -13 5 -30z m-98 -5 c3 -13 1 -22 -3
-19 -9 5 -13 44 -5 44 2 0 6 -11 8 -25z m210 0 c3 -13 1 -22 -3 -19 -9 5 -13
44 -5 44 2 0 6 -11 8 -25z m-313 -2 c-6 -6 -18 -9 -26 -6 -12 5 -14 3 -8 -7 5
-9 4 -11 -4 -6 -17 11 2 32 28 32 15 0 17 -4 10 -13z m142 -8 c5 4 9 1 9 -5 0
-17 -25 -6 -26 11 -1 9 1 10 3 1 3 -7 9 -10 14 -7z m123 10 c-3 -7 -15 -11
-27 -8 -18 4 -19 3 -7 -7 13 -10 13 -11 0 -7 -29 7 -22 32 9 33 20 1 28 -2 25
-11z m23 -7 c-3 -8 -6 -5 -6 6 -1 11 2 17 5 13 3 -3 4 -12 1 -19z m-207 -3 c0
-8 -7 -15 -15 -15 -13 0 -14 3 -3 15 16 18 18 18 18 0z m-3632 -102 c-10 -2
-18 -13 -18 -23 0 -10 8 -21 18 -23 16 -4 16 -5 -1 -6 -20 -1 -32 21 -23 44 3
8 13 14 23 14 17 -1 17 -2 1 -6z m67 -23 c0 -29 -32 -41 -41 -16 -9 24 4 48
23 44 12 -2 18 -12 18 -28z m58 17 c3 10 5 2 6 -17 l1 -35 -19 24 -19 25 -5
-25 c-3 -19 -5 -17 -6 10 -1 33 0 34 18 17 18 -17 19 -17 24 1z m49 -14 c-5
-23 -7 -25 -10 -8 -2 11 -9 23 -16 27 -6 5 -3 8 10 8 18 0 20 -4 16 -27z m58
1 c0 -14 -4 -23 -10 -19 -5 3 -7 12 -3 20 3 8 0 15 -5 15 -6 0 -13 -12 -15
-27 -4 -26 -4 -26 -6 5 -1 26 3 32 19 32 15 0 20 -7 20 -26z m75 -4 c0 -17 -6
-25 -20 -27 -16 -1 -16 -1 -2 3 20 6 19 36 -3 46 -11 6 -10 7 5 5 14 -1 20
-10 20 -27z m41 -23 c9 -3 8 -4 -3 -3 -12 1 -18 10 -19 26 -1 21 0 21 3 3 2
-12 11 -24 19 -26z m68 45 c-7 -4 -14 -18 -17 -32 -4 -25 -4 -25 -6 3 -1 29
-21 39 -21 10 0 -9 -3 -14 -6 -10 -14 14 7 37 33 37 16 0 23 -4 17 -8z m76
-47 c0 -4 -9 4 -20 18 -11 14 -20 28 -20 32 0 4 9 -4 20 -18 11 -14 20 -28 20
-32z m43 45 c-25 -10 -30 -25 -12 -36 6 -3 15 0 20 7 7 11 9 10 9 -3 0 -22
-23 -23 -40 -3 -15 18 3 45 29 44 11 0 9 -3 -6 -9z m-286 -32 c-3 -7 -5 -2 -5
12 0 14 2 19 5 13 2 -7 2 -19 0 -25z m439 -3 c-3 -8 -12 -15 -21 -15 -21 0
-19 38 3 42 19 4 26 -6 18 -27z m-47 3 c-1 -17 -2 -19 -6 -5 -2 9 -13 17 -23
17 -10 0 -21 -8 -23 -17 -4 -14 -5 -12 -6 5 -1 18 4 22 29 22 25 0 30 -4 29
-22z m2715 -10 c23 -33 20 -75 -9 -103 -49 -50 -125 -20 -125 50 0 48 29 75
79 75 30 0 44 -6 55 -22z m103 -75 c-4 -3 -7 -1 -7 5 0 7 -7 12 -15 12 -8 0
-15 7 -15 15 0 13 4 12 22 -5 12 -11 18 -23 15 -27z m-1314 30 c-238 -2 -628
-2 -865 0 -238 1 -44 2 432 2 476 0 670 -1 433 -2z m1407 -18 c0 -8 -3 -16 -7
-18 -5 -3 -8 5 -8 18 0 13 3 21 8 18 4 -2 7 -10 7 -18z m40 2 c0 -7 -4 -6 -11
3 -9 12 -10 10 -5 -9 3 -17 2 -21 -6 -13 -13 13 -2 46 12 37 5 -3 10 -12 10
-18z m116 14 c-4 -5 0 -11 6 -14 10 -3 10 -8 -1 -18 -8 -8 -11 -9 -7 -2 3 6 2
14 -4 18 -10 6 -5 25 6 25 3 0 3 -4 0 -9z m70 -4 c10 4 12 0 8 -11 -4 -9 -9
-14 -12 -12 -3 3 -11 1 -18 -5 -16 -13 -28 5 -20 28 5 12 10 13 18 5 6 -6 17
-8 24 -5z m-284 -29 c-6 -6 -12 -6 -17 3 -5 8 -4 10 3 5 7 -4 12 0 13 11 0 12
2 13 6 5 3 -8 1 -18 -5 -24z m25 -5 c-3 -10 -5 -4 -5 12 0 17 2 24 5 18 2 -7
2 -21 0 -30z m90 15 c-3 -8 -6 -5 -6 6 -1 11 2 17 5 13 3 -3 4 -12 1 -19z m44
8 c5 3 9 0 9 -6 0 -15 -23 -7 -26 8 -1 7 0 8 3 2 2 -5 9 -8 14 -4z m26 -8 c-3
-8 -6 -5 -6 6 -1 11 2 17 5 13 3 -3 4 -12 1 -19z m-3875 -25 c24 -23 28 -34
28 -85 l0 -58 -64 0 -64 0 -4 73 c-2 39 0 78 5 85 16 22 69 14 99 -15z"/>
<path d="M1430 4395 c0 -9 5 -15 11 -13 6 2 11 8 11 13 0 5 -5 11 -11 13 -6 2
-11 -4 -11 -13z"/>
<path d="M1640 4420 c0 -5 7 -10 15 -10 8 0 15 5 15 10 0 6 -7 10 -15 10 -8 0
-15 -4 -15 -10z"/>
<path d="M1970 4420 c0 -5 7 -10 15 -10 8 0 15 5 15 10 0 6 -7 10 -15 10 -8 0
-15 -4 -15 -10z"/>
<path d="M1740 4395 c0 -8 5 -15 10 -15 6 0 10 7 10 15 0 8 -4 15 -10 15 -5 0
-10 -7 -10 -15z"/>
<path d="M1828 4403 c7 -3 16 -2 19 1 4 3 -2 6 -13 5 -11 0 -14 -3 -6 -6z"/>
<path d="M2100 4395 c0 -8 5 -15 10 -15 6 0 10 7 10 15 0 8 -4 15 -10 15 -5 0
-10 -7 -10 -15z"/>
<path d="M2160 4395 c0 -8 5 -15 10 -15 6 0 10 7 10 15 0 8 -4 15 -10 15 -5 0
-10 -7 -10 -15z"/>
<path d="M2330 4395 c0 -8 5 -15 10 -15 6 0 10 7 10 15 0 8 -4 15 -10 15 -5 0
-10 -7 -10 -15z"/>
<path d="M3348 4065 c-4 -34 12 -49 27 -25 3 6 24 10 46 10 35 0 39 3 39 25 0
24 -3 25 -54 25 l-54 0 -4 -35z"/>
<path d="M3448 4023 c7 -3 16 -2 19 1 4 3 -2 6 -13 5 -11 0 -14 -3 -6 -6z"/>
<path d="M4270 4040 c0 -29 1 -30 50 -30 49 0 50 1 50 30 0 29 -1 30 -50 30
-49 0 -50 -1 -50 -30z"/>
<path d="M1779 4079 c-16 -30 3 -69 34 -69 29 0 47 17 47 45 0 45 -60 63 -81
24z m51 -24 c0 -8 -7 -15 -15 -15 -8 0 -15 7 -15 15 0 8 7 15 15 15 8 0 15 -7
15 -15z"/>
<path d="M1301 4066 c-18 -22 11 -41 40 -25 22 11 22 12 4 25 -24 17 -30 17
-44 0z"/>
<path d="M1548 3653 c156 -2 408 -2 560 0 152 1 25 2 -283 2 -308 0 -433 -1
-277 -2z"/>
<path d="M1260 3540 l0 -100 1720 0 1720 0 0 100 0 100 -1720 0 -1720 0 0
-100z m117 56 c4 -8 26 -16 48 -18 l40 -3 0 -45 0 -45 -81 -3 -81 -3 -6 46
c-7 70 -1 85 39 85 18 0 37 -6 41 -14z m242 -63 c0 -11 -3 -13 -6 -5 -8 19
-21 14 -26 -10 -4 -20 -4 -19 -6 5 -1 21 4 27 19 27 13 0 20 -6 19 -17z m257
2 c7 -18 -12 -45 -32 -45 -9 0 -14 11 -14 30 0 23 4 30 20 30 11 0 23 -7 26
-15z m-64 -20 c3 -13 1 -22 -3 -19 -9 5 -13 44 -5 44 2 0 6 -11 8 -25z m130 0
c3 -13 1 -22 -3 -19 -9 5 -13 44 -5 44 2 0 6 -11 8 -25z m-305 -7 c-3 -8 -6
-5 -6 6 -1 11 2 17 5 13 3 -3 4 -12 1 -19z m70 -15 c-3 -10 -5 -4 -5 12 0 17
2 24 5 18 2 -7 2 -21 0 -30z m37 4 c7 -6 6 -7 -4 -4 -8 2 -16 12 -17 23 -2 13
-1 15 4 4 3 -8 11 -19 17 -23z m30 22 c-3 -6 0 -16 7 -21 12 -8 11 -9 -1 -5
-18 4 -27 37 -10 37 6 0 8 -5 4 -11z m143 -14 c-4 -8 -11 -15 -17 -15 -14 0
-13 27 3 33 16 6 21 1 14 -18z m73 5 c0 -11 -7 -20 -15 -20 -18 0 -19 12 -3
28 16 16 18 15 18 -8z m-306 -12 c-3 -4 -9 -8 -15 -8 -5 0 -9 4 -9 8 0 5 7 9
15 9 8 0 12 -4 9 -9z"/>
<path d="M1840 3519 c0 -24 23 -21 28 4 2 10 -3 17 -12 17 -10 0 -16 -9 -16
-21z"/>
<path d="M1330 2670 l0 -60 45 0 45 0 0 39 c0 30 -4 40 -20 44 -11 3 -20 12
-20 21 0 10 -9 16 -25 16 -24 0 -25 -3 -25 -60z"/>
<path d="M1330 2465 l0 -65 45 0 45 0 0 44 c0 35 -4 45 -20 49 -11 3 -20 12
-20 21 0 10 -9 16 -25 16 -24 0 -25 -2 -25 -65z"/>
<path d="M5315 3740 c3 -5 8 -10 11 -10 2 0 4 5 4 10 0 6 -5 10 -11 10 -5 0
-7 -4 -4 -10z"/>
<path d="M5067 3294 c-8 -8 1 -24 14 -24 5 0 9 7 9 15 0 15 -12 20 -23 9z"/>
<path d="M4870 3285 c0 -8 5 -15 10 -15 6 0 10 7 10 15 0 8 -4 15 -10 15 -5 0
-10 -7 -10 -15z"/>
<path d="M4847 3125 c-10 -9 -17 -31 -16 -48 1 -30 1 -30 8 -7 9 32 68 42 88
14 12 -17 13 -17 13 2 0 29 -13 43 -46 50 -22 4 -36 1 -47 -11z"/>
<path d="M4901 3064 c0 -11 3 -14 6 -6 3 7 2 16 -1 19 -3 4 -6 -2 -5 -13z"/>
<path d="M1910 3080 c0 -5 5 -10 10 -10 6 0 10 5 10 10 0 6 -4 10 -10 10 -5 0
-10 -4 -10 -10z"/>
<path d="M5380 3060 c0 -5 5 -10 10 -10 6 0 10 5 10 10 0 6 -4 10 -10 10 -5 0
-10 -4 -10 -10z"/>
<path d="M1330 2890 l0 -60 45 0 45 0 0 45 c0 34 -4 45 -15 45 -9 0 -18 7 -21
15 -4 8 -17 15 -30 15 -23 0 -24 -3 -24 -60z"/>
<path d="M4856 2877 c-16 -11 -18 -22 -12 -59 7 -48 18 -58 64 -58 19 0 23 3
15 11 -6 6 -9 28 -6 48 4 27 0 42 -12 54 -20 20 -26 21 -49 4z m42 -52 c1 -19
-3 -25 -18 -25 -22 0 -39 22 -22 28 7 2 10 8 6 13 -3 5 3 9 13 9 13 0 19 -8
21 -25z"/>
<path d="M1590 2670 c0 -5 5 -10 10 -10 6 0 10 5 10 10 0 6 -4 10 -10 10 -5 0
-10 -4 -10 -10z"/>
<path d="M4860 2590 c0 -5 5 -10 10 -10 6 0 10 5 10 10 0 6 -4 10 -10 10 -5 0
-10 -4 -10 -10z"/>
<path d="M4900 2590 c0 -5 4 -10 9 -10 6 0 13 5 16 10 3 6 -1 10 -9 10 -9 0
-16 -4 -16 -10z"/>
<path d="M4887 2563 c-12 -11 -8 -30 7 -30 7 0 13 6 12 13 -3 18 -11 25 -19
17z"/>
<path d="M1640 2440 c0 -11 7 -20 15 -20 8 0 15 9 15 20 0 11 -7 20 -15 20 -8
0 -15 -9 -15 -20z"/>
<path d="M2270 2430 c0 -5 5 -10 10 -10 6 0 10 5 10 10 0 6 -4 10 -10 10 -5 0
-10 -4 -10 -10z"/>
<path d="M4866 2384 c-23 -23 -19 -51 9 -70 24 -16 27 -16 45 1 25 23 26 61 1
75 -27 14 -37 13 -55 -6z"/>
<path d="M5350 2354 c0 -8 5 -12 10 -9 6 4 8 11 5 16 -9 14 -15 11 -15 -7z"/>
<path d="M1324 2306 c-3 -7 -4 -35 -2 -62 l3 -49 50 0 50 0 3 43 c3 33 -1 44
-15 49 -10 3 -22 12 -26 20 -11 17 -56 17 -63 -1z"/>
<path d="M380 4670 c0 -5 5 -10 10 -10 6 0 10 5 10 10 0 6 -4 10 -10 10 -5 0
-10 -4 -10 -10z"/>
<path d="M770 4670 c0 -5 5 -10 11 -10 5 0 7 5 4 10 -3 6 -8 10 -11 10 -2 0
-4 -4 -4 -10z"/>
<path d="M5555 4651 c-6 -11 9 -23 19 -14 9 9 7 23 -3 23 -6 0 -12 -4 -16 -9z"/>
<path d="M440 4620 c0 -5 5 -10 10 -10 6 0 10 5 10 10 0 6 -4 10 -10 10 -5 0
-10 -4 -10 -10z"/>
<path d="M6030 4619 c0 -5 5 -7 10 -4 6 3 10 8 10 11 0 2 -4 4 -10 4 -5 0 -10
-5 -10 -11z"/>
<path d="M830 4609 c0 -5 5 -7 10 -4 6 3 10 8 10 11 0 2 -4 4 -10 4 -5 0 -10
-5 -10 -11z"/>
<path d="M5960 4579 c0 -5 5 -7 10 -4 6 3 10 8 10 11 0 2 -4 4 -10 4 -5 0 -10
-5 -10 -11z"/>
<path d="M885 4560 c-3 -5 -1 -10 4 -10 6 0 11 5 11 10 0 6 -2 10 -4 10 -3 0
-8 -4 -11 -10z"/>
<path d="M5890 4539 c0 -5 5 -7 10 -4 6 3 10 8 10 11 0 2 -4 4 -10 4 -5 0 -10
-5 -10 -11z"/>
<path d="M560 4510 c0 -5 5 -10 10 -10 6 0 10 5 10 10 0 6 -4 10 -10 10 -5 0
-10 -4 -10 -10z"/>
<path d="M945 4500 c3 -5 8 -10 11 -10 2 0 4 5 4 10 0 6 -5 10 -11 10 -5 0 -7
-4 -4 -10z"/>
<path d="M5820 4500 c0 -5 5 -10 10 -10 6 0 10 5 10 10 0 6 -4 10 -10 10 -5 0
-10 -4 -10 -10z"/>
<path d="M620 4460 c0 -5 5 -10 10 -10 6 0 10 5 10 10 0 6 -4 10 -10 10 -5 0
-10 -4 -10 -10z"/>
<path d="M5750 4460 c0 -5 5 -10 10 -10 6 0 10 5 10 10 0 6 -4 10 -10 10 -5 0
-10 -4 -10 -10z"/>
<path d="M1005 4450 c-3 -5 -1 -10 4 -10 6 0 11 5 11 10 0 6 -2 10 -4 10 -3 0
-8 -4 -11 -10z"/>
<path d="M5680 4420 c0 -5 5 -10 10 -10 6 0 10 5 10 10 0 6 -4 10 -10 10 -5 0
-10 -4 -10 -10z"/>
<path d="M1060 4389 c0 -5 5 -7 10 -4 6 3 10 8 10 11 0 2 -4 4 -10 4 -5 0 -10
-5 -10 -11z"/>
<path d="M740 4349 c0 -5 5 -7 10 -4 6 3 10 8 10 11 0 2 -4 4 -10 4 -5 0 -10
-5 -10 -11z"/>
<path d="M800 4300 c0 -5 5 -10 11 -10 5 0 7 5 4 10 -3 6 -8 10 -11 10 -2 0
-4 -4 -4 -10z"/>
<path d="M860 4239 c0 -5 5 -7 10 -4 6 3 10 8 10 11 0 2 -4 4 -10 4 -5 0 -10
-5 -10 -11z"/>
<path d="M920 4189 c0 -5 5 -7 10 -4 6 3 10 8 10 11 0 2 -4 4 -10 4 -5 0 -10
-5 -10 -11z"/>
<path d="M980 4140 c0 -5 5 -10 11 -10 5 0 7 5 4 10 -3 6 -8 10 -11 10 -2 0
-4 -4 -4 -10z"/>
<path d="M1040 4084 c0 -8 5 -12 10 -9 6 4 8 11 5 16 -9 14 -15 11 -15 -7z"/>
<path d="M1100 4029 c0 -5 5 -7 10 -4 6 3 10 8 10 11 0 2 -4 4 -10 4 -5 0 -10
-5 -10 -11z"/>
<path d="M985 2390 c3 -5 8 -10 11 -10 2 0 4 5 4 10 0 6 -5 10 -11 10 -5 0 -7
-4 -4 -10z"/>
<path d="M970 2310 c0 -5 5 -10 10 -10 6 0 10 5 10 10 0 6 -4 10 -10 10 -5 0
-10 -4 -10 -10z"/>
<path d="M960 2230 c0 -5 5 -10 10 -10 6 0 10 5 10 10 0 6 -4 10 -10 10 -5 0
-10 -4 -10 -10z"/>
<path d="M950 2149 c0 -5 5 -7 10 -4 6 3 10 8 10 11 0 2 -4 4 -10 4 -5 0 -10
-5 -10 -11z"/>
<path d="M2465 2070 c-4 -7 -212 -10 -628 -10 -342 0 -684 0 -759 0 l-138 0 0
-1015 0 -1015 770 0 770 0 0 375 c0 363 -1 375 -19 375 -13 0 -21 -9 -26 -30
-4 -16 -8 -30 -10 -30 -5 0 -177 91 -205 108 -24 15 -22 16 80 38 58 12 117
25 131 28 26 5 27 4 22 -34 -5 -33 -3 -40 11 -40 15 0 16 21 14 218 -3 213 -3
217 -24 220 -18 3 -23 -4 -28 -32 -4 -20 -9 -36 -12 -36 -12 0 -215 145 -207
147 7 3 253 30 253 29 0 -1 -4 -16 -9 -34 -5 -17 -8 -32 -6 -32 2 0 10 -3 19
-6 14 -5 16 7 16 100 0 85 -3 106 -14 106 -8 0 -17 -13 -21 -30 -4 -16 -8 -30
-11 -30 -2 0 -54 31 -114 69 l-110 69 117 11 c65 7 125 13 133 14 22 3 28 157
6 157 -8 0 -17 -13 -21 -30 -4 -16 -8 -30 -11 -30 -8 0 -226 132 -222 135 2 1
53 10 113 19 61 10 117 19 127 22 14 4 15 -1 11 -36 -4 -25 -2 -40 5 -40 7 0
12 47 14 136 3 127 -1 159 -17 134z m-1317 -87 c-32 -2 -84 -2 -115 0 -32 2
-6 3 57 3 63 0 89 -1 58 -3z m1161 -9 c7 -7 -691 -2 -904 6 -114 4 37 5 350 3
303 -3 552 -7 554 -9z m-1145 -59 c3 -10 19 -15 44 -15 21 0 43 -5 50 -12 16
-16 15 -83 -1 -96 -8 -7 -48 -10 -98 -9 l-84 2 -3 59 c-2 32 -1 65 2 72 8 20
82 19 90 -1z m264 -58 c2 -9 -1 -17 -7 -17 -6 0 -8 7 -5 15 4 10 0 15 -11 15
-12 0 -16 -6 -12 -19 2 -10 1 -25 -4 -32 -6 -10 -9 -4 -9 17 0 17 3 34 7 38
12 12 38 2 41 -17z m295 2 c15 -24 1 -49 -28 -49 -21 0 -25 5 -25 28 0 16 3
32 7 36 11 10 35 3 46 -15z m-68 -24 c0 -14 -3 -25 -7 -25 -4 0 -8 14 -8 32 0
36 13 30 15 -7z m148 5 c-6 -23 4 -25 30 -6 11 9 14 16 7 19 -6 3 -5 4 2 3 7
-1 14 -13 16 -25 3 -20 0 -22 -30 -19 -28 3 -33 7 -36 32 -2 16 0 26 6 22 6
-3 8 -15 5 -26z m-351 -7 c-3 -16 -7 -22 -10 -15 -4 13 4 42 11 42 2 0 2 -12
-1 -27z m53 17 c3 -6 -1 -7 -9 -4 -11 4 -16 0 -16 -11 0 -11 5 -15 15 -11 8 3
15 1 15 -4 0 -13 -27 -13 -35 0 -8 14 1 40 14 40 5 0 13 -4 16 -10z m65 0
c-12 -8 -11 -10 7 -10 12 0 25 5 28 10 3 6 12 10 18 10 7 0 4 -5 -5 -11 -10
-5 -18 -14 -18 -19 0 -5 8 -11 18 -13 15 -4 15 -5 0 -6 -9 0 -20 4 -23 9 -3 6
-16 10 -28 9 -21 0 -21 -1 -2 -9 16 -7 17 -9 3 -9 -9 -1 -20 4 -23 9 -8 13 12
40 29 40 6 0 4 -5 -4 -10z m208 -18 c3 -17 -2 -22 -17 -22 -25 0 -28 18 -5 27
13 5 13 8 2 15 -10 8 -10 9 2 5 8 -2 16 -13 18 -25z m-251 -29 c-3 -10 -5 -2
-5 17 0 19 2 27 5 18 2 -10 2 -26 0 -35z m458 -72 l330 -7 -340 -1 c-187 0
-488 3 -670 6 l-330 7 340 1 c187 0 489 -3 670 -6z m-818 -75 c5 -8 27 -16 53
-18 l45 -3 0 -50 0 -50 -95 0 -95 0 -3 68 -3 67 45 0 c29 0 48 -5 53 -14z
m246 -36 c-13 -5 -23 -16 -23 -25 0 -9 10 -20 23 -25 22 -10 22 -10 -3 -7 -43
4 -34 68 9 66 11 0 9 -3 -6 -9z m232 -25 c0 -23 -5 -31 -22 -33 -20 -3 -23 1
-23 33 0 32 3 36 23 33 17 -2 22 -10 22 -33z m-90 5 c15 12 35 6 35 -11 0 -5
-8 -9 -17 -9 -15 0 -16 -2 -3 -10 13 -8 12 -10 -2 -10 -10 0 -18 5 -18 11 0 8
-5 8 -15 -1 -18 -15 -45 -6 -45 15 0 21 44 38 48 18 3 -11 7 -11 17 -3z m-77
-18 c2 -14 -2 -22 -12 -22 -19 0 -29 17 -22 36 8 22 30 12 34 -14z m220 0 c3
-17 -2 -22 -17 -22 -25 0 -28 18 -5 27 13 5 13 8 2 15 -10 8 -10 9 2 5 8 -2
16 -13 18 -25z m33 19 c-9 -6 -10 -11 -2 -15 17 -11 13 -26 -6 -25 -13 0 -14
2 -4 6 10 4 11 7 1 13 -14 9 -5 30 13 30 8 0 8 -3 -2 -9z m57 -9 c2 -7 -5 -12
-15 -13 -16 0 -16 -1 2 -9 16 -7 17 -9 3 -9 -21 -1 -32 15 -24 35 7 17 27 15
34 -4z m197 -111 l330 -7 -340 -1 c-187 0 -488 3 -670 6 l-330 7 340 1 c187 0
489 -3 670 -6z m-821 -76 c4 -10 20 -15 51 -15 l45 0 0 -55 0 -56 -92 3 -93 3
-3 68 -3 67 44 0 c31 0 47 -5 51 -15z m227 -70 c-9 -30 -9 -30 -10 10 -1 25 2
36 9 29 6 -6 6 -21 1 -39z m58 8 c-1 -38 -1 -38 -9 -9 -8 27 -6 46 6 46 2 0 4
-17 3 -37z m429 30 c-21 -5 -24 -23 -5 -23 8 0 9 -3 1 -8 -6 -4 -14 -14 -17
-22 -3 -8 -6 2 -6 23 -1 32 2 37 22 36 16 -1 18 -2 5 -6z m54 -28 c2 -19 0
-35 -4 -35 -4 0 -8 16 -8 35 0 19 2 35 4 35 2 0 6 -16 8 -35z m-434 -13 c3
-17 -2 -22 -17 -22 -25 0 -28 18 -5 27 13 5 13 8 2 15 -10 8 -10 9 2 5 8 -2
16 -13 18 -25z m51 1 c-2 -24 -2 -25 -6 -5 -2 12 -8 22 -13 22 -5 0 -11 -10
-13 -22 -4 -20 -4 -19 -6 5 -1 21 4 27 19 27 15 0 20 -6 19 -27z m98 21 c-3
-3 -12 -4 -19 -1 -8 3 -5 6 6 6 11 1 17 -2 13 -5z m36 -1 c-7 -2 -13 -11 -13
-18 0 -7 6 -16 13 -18 9 -4 9 -6 0 -6 -6 -1 -15 4 -18 9 -9 15 2 40 17 39 10
0 10 -2 1 -6z m34 -18 c-9 -19 -13 -21 -15 -9 -3 13 12 33 25 34 0 0 -4 -11
-10 -25z m81 -1 c2 -15 -4 -23 -17 -27 -18 -4 -21 0 -21 25 0 23 4 29 18 26 9
-2 18 -13 20 -24z m39 20 c-3 -3 -12 -4 -19 -1 -8 3 -5 6 6 6 11 1 17 -2 13
-5z m70 -31 c-3 -10 -5 -4 -5 12 0 17 2 24 5 18 2 -7 2 -21 0 -30z m81 19 c2
-7 -5 -12 -15 -12 -15 0 -16 -2 -3 -10 13 -8 13 -10 -1 -10 -21 0 -31 24 -16
39 13 13 29 10 35 -7z m33 9 c-9 -6 -10 -11 -2 -15 17 -11 13 -26 -6 -26 -15
0 -16 2 -3 10 10 6 11 10 3 10 -7 0 -13 7 -13 15 0 8 8 15 18 15 13 0 14 -2 3
-9z m-593 -13 c-2 -5 -8 -9 -13 -9 -5 0 -11 4 -13 9 -1 5 4 9 13 9 9 0 14 -4
13 -9z m152 -18 c5 0 11 8 13 18 3 12 5 11 6 -6 1 -17 -4 -23 -16 -20 -10 2
-18 10 -19 18 0 9 1 10 3 3 3 -7 8 -13 13 -13z m167 -2 c-3 -7 -5 -2 -5 12 0
14 2 19 5 13 2 -7 2 -19 0 -25z m-99 4 c2 -7 -5 -12 -15 -11 -12 0 -14 2 -4 6
11 5 11 7 0 15 -12 8 -12 9 0 6 8 -3 17 -10 19 -16z m187 -2 c3 -5 1 -10 -4
-10 -6 0 -11 5 -11 10 0 6 2 10 4 10 3 0 8 -4 11 -10z m-777 -87 c-16 -2 -40
-2 -55 0 -16 2 -3 4 27 4 30 0 43 -2 28 -4z m949 0 c-169 -2 -445 -2 -615 0
-169 1 -30 2 308 2 338 0 477 -1 307 -2z m-802 -54 c35 -32 36 -32 33 -103
l-3 -71 -75 0 -75 0 -3 80 c-4 115 0 125 48 125 30 0 48 -8 75 -31z m203 -112
c12 -3 10 -5 -5 -6 -20 -1 -23 3 -21 37 1 36 1 36 5 5 3 -19 11 -34 21 -36z
m29 11 c-2 -13 -4 -5 -4 17 -1 22 1 32 4 23 2 -10 2 -28 0 -40z m51 45 c-11
-3 -18 -14 -18 -29 0 -16 6 -24 18 -25 12 0 13 -2 3 -6 -8 -3 -20 2 -27 12
-16 22 -1 56 24 54 16 -1 16 -2 0 -6z m60 0 c-10 -2 -18 -9 -18 -14 0 -5 8
-10 18 -10 16 -1 16 -2 0 -6 -10 -2 -18 -8 -18 -13 0 -5 8 -11 18 -13 13 -4
11 -5 -5 -6 -20 -1 -23 4 -23 34 0 30 3 35 23 34 16 -1 18 -2 5 -6z m82 -30
l-1 -38 -23 29 -24 29 -5 -24 c-4 -22 -4 -22 -6 4 -1 33 12 35 33 5 l16 -22 0
27 c0 15 2 27 5 27 3 0 5 -17 5 -37z m43 27 c-13 -5 -23 -16 -23 -25 0 -9 10
-20 23 -25 17 -8 18 -9 3 -7 -28 3 -43 32 -27 51 8 9 21 16 30 15 11 0 9 -3
-6 -9z m65 3 c-10 -2 -18 -9 -18 -14 0 -5 8 -10 18 -10 16 -1 16 -2 0 -6 -10
-2 -18 -8 -18 -13 0 -5 8 -11 18 -13 13 -4 11 -5 -5 -6 -20 -1 -23 4 -23 34 0
30 3 35 23 34 16 -1 18 -2 5 -6z m162 -33 c0 -20 -5 -30 -15 -30 -24 0 -31 31
-10 46 25 18 25 18 25 -16z m-54 -8 c1 -19 1 -19 -3 -2 -6 27 -23 25 -24 -2
l-2 -23 -4 23 c-2 12 -8 22 -13 22 -5 0 -11 -10 -13 -22 -4 -20 -4 -19 -6 4
-1 25 2 28 32 25 25 -2 32 -7 33 -25z m137 -119 c-182 -2 -484 -2 -670 0 -186
1 -36 2 332 2 369 0 521 -1 338 -2z m-773 -49 c30 -35 31 -40 28 -105 l-3 -69
210 -1 c116 -1 359 -5 540 -8 l330 -7 -340 -1 c-328 0 -1058 11 -945 15 l55 2
-3 91 c-2 50 -1 97 2 105 3 9 21 14 50 14 38 0 48 -5 76 -36z m216 -67 c1 -20
-2 -25 -9 -18 -16 16 -25 13 -30 -6 -3 -10 -5 -1 -6 20 -1 34 1 38 22 35 16
-2 22 -10 23 -31z m57 26 c-7 -2 -19 -2 -25 0 -7 3 -2 5 12 5 14 0 19 -2 13
-5z m61 -28 c5 -16 1 -20 -19 -20 -14 0 -25 1 -25 2 0 1 5 14 10 29 11 28 23
24 34 -11z m71 0 c0 -23 -5 -31 -22 -33 -20 -3 -23 1 -23 33 0 32 3 36 23 33
17 -2 22 -10 22 -33z m69 16 c16 23 16 23 15 -16 -1 -33 -2 -36 -8 -15 -6 23
-8 23 -14 6 -7 -19 -8 -19 -22 0 -8 10 -14 26 -14 34 0 9 5 5 13 -9 l13 -24
17 24z m69 12 c-7 -2 -19 -2 -25 0 -7 3 -2 5 12 5 14 0 19 -2 13 -5z m157 -28
c0 -25 -4 -35 -15 -35 -24 0 -29 29 -9 50 25 25 24 25 24 -15z m-54 -13 c1
-19 1 -19 -3 -2 -6 27 -23 25 -24 -2 l-2 -23 -4 23 c-2 12 -8 22 -13 22 -5 0
-11 -10 -13 -22 -4 -20 -4 -19 -6 4 -1 25 2 28 32 25 25 -2 32 -7 33 -25z
m-379 12 c-3 -3 -12 -4 -19 -1 -8 3 -5 6 6 6 11 1 17 -2 13 -5z m270 0 c-3 -3
-12 -4 -19 -1 -8 3 -5 6 6 6 11 1 17 -2 13 -5z m-264 -31 c-7 -2 -19 -2 -25 0
-7 3 -2 5 12 5 14 0 19 -2 13 -5z m270 0 c-7 -2 -19 -2 -25 0 -7 3 -2 5 12 5
14 0 19 -2 13 -5z m-539 -132 c25 -26 27 -34 24 -97 l-3 -69 -75 0 -75 0 -3
84 c-2 46 -1 90 2 98 4 8 23 13 54 13 40 0 53 -5 76 -29z m199 -61 c-13 -5
-23 -16 -23 -25 0 -9 10 -20 23 -25 17 -8 18 -9 3 -7 -43 5 -47 68 -4 66 l23
0 -22 -9z m85 -23 c4 -33 -22 -47 -45 -24 -22 21 -8 59 20 55 16 -2 23 -11 25
-31z m63 13 c6 20 7 18 8 -15 l1 -40 -25 30 c-13 17 -24 34 -25 40 0 5 8 -2
17 -15 l17 -24 7 24z m62 13 c-7 -2 -14 -19 -14 -36 l-2 -32 -4 30 c-3 16 -10
33 -16 37 -7 4 2 7 18 7 17 0 24 -3 18 -6z m63 -32 c1 -27 0 -31 -8 -18 -12
22 -25 22 -31 0 -3 -10 -5 -1 -6 20 -1 34 1 38 21 35 18 -2 23 -10 24 -37z
m21 -13 c-2 -13 -4 -5 -4 17 -1 22 1 32 4 23 2 -10 2 -28 0 -40z m68 17 c0
-24 -5 -31 -22 -33 -20 -3 -23 1 -23 33 0 32 3 36 22 33 17 -2 22 -10 23 -33z
m40 -25 c8 0 16 12 18 28 4 25 4 25 3 -3 -1 -23 -6 -30 -21 -30 -15 0 -21 8
-22 33 -3 32 -3 32 3 2 3 -16 11 -30 19 -30z m78 53 c-7 -2 -14 -17 -14 -31
l-2 -27 -4 25 c-3 14 -10 28 -17 32 -6 4 3 7 19 7 17 0 24 -3 18 -6z m24 -40
c-3 -10 -5 -2 -5 17 0 19 2 27 5 18 2 -10 2 -26 0 -35z m66 28 c3 16 5 11 6
-16 l1 -39 -17 23 c-16 23 -17 23 -24 5 -6 -14 -8 -10 -8 16 l-1 35 19 -24 19
-25 5 25z m62 12 c-11 -3 -23 -10 -27 -16 -9 -15 2 -37 19 -37 9 0 13 6 9 15
-3 8 -1 15 4 15 6 0 10 -9 10 -20 0 -25 -35 -27 -49 -3 -13 24 5 53 32 52 20
-1 20 -2 2 -6z m163 -54 c-18 -12 -32 -6 -36 15 -2 11 4 19 17 23 12 3 22 10
22 17 1 6 4 -2 6 -18 3 -17 -1 -32 -9 -37z m-49 14 c-2 -24 -2 -25 -6 -5 -5
26 -23 30 -24 5 0 -16 -1 -15 -8 2 -8 19 -8 19 -19 0 -9 -16 -11 -17 -12 -4 0
22 9 29 42 29 24 0 28 -4 27 -27z m-176 -90 c-182 -2 -484 -2 -670 0 -186 1
-36 2 332 2 369 0 521 -1 338 -2z m-774 -49 c30 -33 32 -40 29 -102 l-3 -67
-75 0 -75 0 -3 89 c-2 49 -1 95 2 103 3 8 22 13 50 13 38 0 48 -5 75 -36z
m774 -221 c-182 -2 -484 -2 -670 0 -186 1 -36 2 332 2 369 0 521 -1 338 -2z"/>
<path d="M1680 1845 c0 -20 4 -26 18 -23 9 2 17 12 17 23 0 11 -8 21 -17 23
-14 3 -18 -3 -18 -23z"/>
<path d="M1610 1610 c0 -5 7 -10 15 -10 8 0 15 5 15 10 0 6 -7 10 -15 10 -8 0
-15 -4 -15 -10z"/>
<path d="M1610 1580 c0 -5 7 -10 15 -10 8 0 15 5 15 10 0 6 -7 10 -15 10 -8 0
-15 -4 -15 -10z"/>
<path d="M1500 1585 c0 -9 5 -15 11 -13 6 2 11 8 11 13 0 5 -5 11 -11 13 -6 2
-11 -4 -11 -13z"/>
<path d="M1450 1585 c0 -8 5 -15 10 -15 6 0 10 7 10 15 0 8 -4 15 -10 15 -5 0
-10 -7 -10 -15z"/>
<path d="M1770 1335 c0 -8 5 -15 10 -15 6 0 10 7 10 15 0 8 -4 15 -10 15 -5 0
-10 -7 -10 -15z"/>
<path d="M1110 1105 l0 -75 50 0 50 0 0 49 c0 40 -3 50 -20 54 -12 3 -20 14
-20 26 0 17 -6 21 -30 21 l-30 0 0 -75z"/>
<path d="M1870 1085 c0 -8 5 -15 10 -15 6 0 10 7 10 15 0 8 -4 15 -10 15 -5 0
-10 -7 -10 -15z"/>
<path d="M1110 845 l0 -75 50 0 50 0 0 54 c0 45 -3 54 -20 59 -11 3 -20 12
-20 21 0 11 -9 16 -30 16 l-30 0 0 -75z"/>
<path d="M1390 860 c0 -5 7 -10 15 -10 8 0 15 5 15 10 0 6 -7 10 -15 10 -8 0
-15 -4 -15 -10z"/>
<path d="M1580 845 c0 -16 6 -25 15 -25 9 0 15 9 15 25 0 16 -6 25 -15 25 -9
0 -15 -9 -15 -25z"/>
<path d="M1880 835 c0 -8 5 -15 10 -15 6 0 10 7 10 15 0 8 -4 15 -10 15 -5 0
-10 -7 -10 -15z"/>
<path d="M1110 610 l0 -70 50 0 50 0 0 49 c0 40 -3 50 -20 54 -11 3 -20 12
-20 21 0 11 -9 16 -30 16 l-30 0 0 -70z"/>
<path d="M1454 605 c-7 -18 3 -35 22 -35 8 0 14 10 14 25 0 27 -27 35 -36 10z"/>
<path d="M1650 610 c0 -5 7 -10 15 -10 8 0 15 5 15 10 0 6 -7 10 -15 10 -8 0
-15 -4 -15 -10z"/>
<path d="M1740 610 c0 -5 4 -10 9 -10 6 0 13 5 16 10 3 6 -1 10 -9 10 -9 0
-16 -4 -16 -10z"/>
<path d="M1740 580 c0 -5 7 -10 15 -10 8 0 15 5 15 10 0 6 -7 10 -15 10 -8 0
-15 -4 -15 -10z"/>
<path d="M2180 584 c0 -17 22 -14 28 4 2 7 -3 12 -12 12 -9 0 -16 -7 -16 -16z"/>
<path d="M1110 375 l0 -75 50 0 50 0 0 54 c0 45 -3 54 -20 59 -11 3 -20 12
-20 21 0 11 -9 16 -30 16 l-30 0 0 -75z"/>
<path d="M3970 2040 c0 -5 5 -10 10 -10 6 0 10 5 10 10 0 6 -4 10 -10 10 -5 0
-10 -4 -10 -10z"/>
<path d="M3930 1731 l0 -249 38 -7 c133 -24 172 -37 172 -56 0 -15 -5 -19 -17
-15 -30 9 -163 36 -179 36 -12 0 -14 -20 -12 -117 l3 -117 80 -18 c44 -10 90
-20 103 -23 13 -3 22 -13 22 -24 0 -18 -2 -18 -87 0 -49 11 -96 22 -105 25
-16 5 -18 -5 -18 -114 l0 -120 68 -16 c139 -35 142 -36 142 -55 0 -18 -4 -18
-92 5 -51 13 -99 24 -105 24 -10 0 -13 -32 -13 -129 l0 -128 105 -13 c94 -12
105 -15 105 -33 0 -16 -5 -19 -28 -14 -16 3 -63 9 -105 13 l-77 7 0 -177 0
-176 740 0 740 0 0 859 c0 565 3 860 10 863 6 2 -323 2 -730 0 -498 -1 -740 1
-740 8 0 5 -4 10 -10 10 -6 0 -10 -90 -10 -249z m260 0 c-18 -5 -25 -14 -25
-31 0 -17 7 -26 25 -32 23 -6 23 -7 -5 -5 -23 2 -31 7 -33 25 -5 37 5 52 35
51 l28 -1 -25 -7z m315 -16 c15 0 20 -7 20 -25 0 -20 -6 -26 -27 -28 -27 -3
-28 -1 -27 40 0 24 3 36 7 28 4 -8 16 -15 27 -15z m-123 -3 c-15 -5 -16 -38
-2 -45 6 -3 5 -4 -2 -3 -12 2 -30 51 -21 60 3 2 12 2 21 -2 10 -4 12 -7 4 -10z
m250 0 c-15 -5 -16 -38 -2 -45 6 -3 5 -4 -2 -3 -12 2 -30 51 -21 60 3 2 12 2
21 -2 10 -4 12 -7 4 -10z m-362 -7 c17 -20 5 -45 -20 -45 -11 0 -23 7 -26 15
-6 15 11 45 26 45 4 0 13 -7 20 -15z m66 -18 c1 -26 1 -26 -3 -2 -5 31 -25 28
-34 -6 -6 -22 -7 -21 -8 7 -1 26 3 31 22 30 17 -1 22 -7 23 -29z m85 19 c-5
-6 -11 -20 -14 -31 -3 -14 -5 -10 -6 11 -1 21 4 31 14 31 9 0 11 -4 6 -11z
m144 -36 c8 0 16 12 18 28 4 25 4 24 6 -6 1 -29 -2 -33 -21 -30 -17 2 -23 10
-24 28 -1 22 0 22 3 3 2 -13 10 -23 18 -23z m133 17 c3 -22 -1 -27 -18 -27
-23 0 -35 22 -26 46 10 25 41 12 44 -19z m43 19 c-5 -6 -11 -20 -14 -31 -3
-14 -5 -10 -6 11 -1 21 4 31 14 31 9 0 11 -4 6 -11z m47 7 c-22 -5 -24 -23 -3
-23 8 0 15 -7 15 -15 0 -9 -9 -15 -22 -14 -19 1 -19 2 -5 6 17 4 17 5 1 17
-20 15 -11 37 14 35 15 -1 15 -2 0 -6z m-328 -28 c0 -14 -4 -25 -10 -25 -5 0
-10 11 -10 25 0 14 5 25 10 25 6 0 10 -11 10 -25z m-145 -200 c19 -18 25 -35
25 -67 -1 -46 -12 -68 -47 -86 -33 -18 -59 -14 -92 14 -26 22 -31 33 -31 70 0
58 32 94 85 94 25 0 44 -8 60 -25z m124 -44 c11 -20 -11 -63 -25 -48 -4 4 -2
7 4 7 7 0 12 11 12 25 0 18 -5 25 -19 25 -15 0 -21 -8 -24 -32 -4 -32 -4 -32
-5 5 -2 33 1 37 23 37 13 0 29 -8 34 -19z m194 -8 l14 -27 16 30 16 29 -1 -40
c0 -22 -2 -32 -5 -22 -4 14 -8 16 -19 6 -11 -9 -15 -7 -21 7 -6 17 -8 16 -14
-6 -6 -21 -7 -20 -8 13 -1 44 4 46 22 10z m-99 -22 c1 -16 -2 -27 -5 -25 -9 5
-17 52 -11 59 9 9 15 -4 16 -34z m-36 3 c2 -12 -4 -24 -12 -27 -23 -9 -32 14
-12 29 16 12 16 13 -1 18 -15 4 -15 5 2 3 12 -1 21 -11 23 -23z m92 -1 c0 -22
-2 -25 -10 -13 -9 13 -11 13 -20 0 -7 -11 -10 -11 -10 -2 0 7 7 15 16 19 13 5
13 7 2 14 -10 7 -9 9 5 9 12 0 17 -8 17 -27z m149 0 c0 -16 -3 -22 -6 -15 -8
19 -26 14 -18 -5 5 -15 4 -16 -7 -5 -11 11 -10 16 5 27 18 13 18 13 0 18 -14
4 -14 5 5 6 18 1 22 -4 21 -26z m60 0 c-2 -24 -2 -25 -6 -5 -2 12 -8 22 -13
22 -5 0 -11 -10 -13 -22 -4 -20 -4 -19 -6 5 -1 21 4 27 19 27 15 0 20 -6 19
-27z m59 1 c2 -12 -4 -24 -12 -27 -23 -9 -32 14 -12 29 16 12 16 13 -1 18 -15
4 -15 5 2 3 12 -1 21 -11 23 -23z m62 -9 c0 -19 -5 -35 -11 -35 -5 0 -7 5 -4
10 3 6 -1 10 -9 10 -8 0 -18 5 -21 10 -11 18 3 40 25 40 16 0 20 -6 20 -35z
m58 18 c2 -8 -5 -13 -18 -13 -14 0 -19 -4 -14 -12 5 -10 4 -10 -5 -2 -6 6 -9
18 -5 28 7 19 35 18 42 -1z m35 5 c-6 -7 -13 -20 -16 -28 -3 -9 -6 -3 -6 13
-1 19 4 27 15 27 12 0 14 -4 7 -12z m-702 -227 c60 -61 26 -161 -56 -161 -52
0 -85 36 -85 93 0 88 82 127 141 68z m124 -42 c5 -14 10 -17 19 -10 16 14 39
-2 34 -25 -5 -26 -38 -31 -44 -6 -7 23 -51 19 -57 -7 -3 -9 -5 3 -6 27 -1 38
1 42 23 42 16 0 27 -7 31 -21z m219 -1 c15 -25 -3 -52 -38 -56 -24 -3 -26 0
-26 31 0 18 3 37 7 41 12 12 45 2 57 -16z m-82 -23 c5 -41 -7 -47 -15 -8 -5
25 -2 43 7 43 2 0 6 -16 8 -35z m-36 13 c4 -7 3 -8 -4 -4 -7 4 -12 2 -12 -3 0
-6 5 -11 10 -11 6 0 10 -7 10 -15 0 -8 -8 -15 -17 -15 -14 0 -15 2 -4 9 11 7
10 11 -5 20 -16 9 -17 12 -4 21 19 12 17 12 26 -2z m180 -33 c-3 -9 -14 -15
-23 -13 -22 4 -30 38 -11 49 18 11 43 -15 34 -36z m49 35 c4 -6 1 -9 -6 -8
-17 4 -24 -29 -7 -35 9 -2 8 -4 -2 -3 -19 2 -26 36 -8 47 16 11 16 11 23 -1z
m-450 -225 c33 -32 35 -101 5 -133 -58 -62 -150 -24 -150 63 0 85 88 127 145
70z m135 -34 c0 -5 -8 -7 -19 -4 -11 3 -21 -2 -24 -11 -9 -24 3 -46 24 -46 21
0 26 16 7 23 -8 3 -5 6 5 6 24 1 18 -32 -6 -37 -37 -7 -62 39 -35 66 14 14 48
16 48 3z m160 -31 c0 -34 -3 -40 -20 -40 -11 0 -23 7 -26 15 -7 18 14 47 27
39 5 -3 9 2 9 10 0 9 2 16 5 16 3 0 5 -18 5 -40z m64 31 c4 -5 -3 -7 -14 -4
-12 3 -20 0 -20 -7 0 -6 9 -14 20 -17 28 -7 21 -38 -8 -39 -19 -1 -19 -1 -2 3
26 6 26 20 0 28 -30 9 -25 45 6 45 7 0 15 -4 18 -9z m166 -32 c0 -36 -2 -40
-22 -37 -15 2 -23 10 -24 23 -1 16 0 17 3 2 3 -10 10 -16 16 -14 11 4 13 9 16
50 2 34 11 16 11 -24z m-134 4 c-4 -9 -1 -22 5 -29 7 -9 8 -14 1 -14 -12 0
-22 24 -22 51 0 12 4 17 11 14 6 -4 8 -14 5 -22z m287 -36 c8 -6 7 -7 -3 -4
-9 2 -16 17 -16 38 -2 31 -1 31 3 4 3 -16 10 -34 16 -38z m-501 41 c-5 -7 -12
-22 -15 -33 -4 -16 -5 -14 -6 7 -1 22 7 33 28 37 2 1 -1 -5 -7 -11z m56 -21
c3 -22 -1 -27 -17 -27 -12 0 -21 7 -21 15 0 8 5 15 11 15 5 0 7 -4 4 -10 -3
-5 -1 -10 4 -10 6 0 11 9 11 21 0 15 -5 19 -16 15 -9 -3 -12 -2 -9 5 11 17 30
4 33 -24z m343 16 c12 -16 12 -17 -2 -6 -9 7 -19 10 -22 6 -11 -11 -8 -31 6
-36 7 -2 6 -3 -3 -3 -27 2 -22 53 6 56 1 0 8 -8 15 -17z m58 -21 l-1 -27 -8
30 c-7 29 -9 28 -23 -15 -3 -8 -6 -3 -6 12 -1 25 15 40 32 31 4 -2 6 -16 6
-31z m-199 -12 c5 0 11 10 13 23 4 18 5 17 6 -6 1 -22 -3 -28 -16 -25 -10 2
-18 12 -19 23 -1 15 0 16 3 3 3 -10 8 -18 13 -18z m-435 -185 c33 -32 34 -89
3 -122 -30 -32 -90 -32 -123 2 -54 53 -16 145 60 145 25 0 44 -8 60 -25z m108
-32 c-31 -6 -29 -19 3 -27 26 -7 29 -27 3 -34 -12 -3 -12 -2 1 7 12 8 9 12
-13 20 -39 15 -34 42 7 40 19 -2 19 -2 -1 -6z m57 -53 c5 0 11 10 13 23 4 19
4 18 6 -5 1 -22 -4 -28 -19 -28 -15 0 -20 6 -19 28 2 23 2 24 6 5 2 -13 8 -23
13 -23z m87 24 c3 -8 1 -20 -5 -26 -8 -8 -9 -5 -5 11 4 15 1 21 -12 21 -12 0
-16 -6 -12 -19 2 -10 1 -25 -4 -32 -6 -9 -9 -1 -9 24 0 31 3 37 20 37 11 0 23
-7 27 -16z m38 6 c-19 -8 -18 -9 5 -11 24 -2 24 -2 2 -6 -12 -2 -20 -9 -17
-14 4 -5 1 -9 -4 -9 -12 0 -15 33 -4 43 3 4 13 7 22 6 12 0 11 -3 -4 -9z m81
-5 c8 -20 24 -19 24 2 0 9 3 14 6 10 8 -8 -5 -47 -16 -47 -5 0 -12 9 -15 20
-9 27 -33 25 -38 -2 -4 -20 -4 -19 -6 5 -1 21 3 27 19 27 11 0 23 -7 26 -15z
m51 -22 c-3 -10 -5 -4 -5 12 0 17 2 24 5 18 2 -7 2 -21 0 -30z m45 30 c-10 -4
-8 -8 5 -18 10 -7 15 -17 11 -20 -8 -9 -38 19 -38 34 0 6 8 11 18 10 11 0 12
-2 4 -6z m72 -10 c4 -9 2 -21 -3 -26 -6 -6 -9 -3 -8 8 1 10 -4 20 -12 23 -10
3 -12 -1 -8 -17 3 -11 1 -21 -4 -21 -10 0 -12 33 -2 43 12 12 31 7 37 -10z
m40 9 c-7 -4 -14 -16 -17 -27 -4 -15 -5 -14 -6 8 -1 20 4 27 17 27 11 0 13 -3
6 -8z"/>
<path d="M4484 1699 c-10 -17 13 -36 27 -22 12 12 4 33 -11 33 -5 0 -12 -5
-16 -11z"/>
<path d="M4234 1699 c-10 -17 13 -36 27 -22 12 12 4 33 -11 33 -5 0 -12 -5
-16 -11z"/>
<path d="M4667 1703 c-13 -12 -7 -33 8 -33 8 0 15 9 15 20 0 20 -11 26 -23 13z"/>
<path d="M4207 1482 c-10 -10 -17 -32 -16 -48 l1 -29 9 26 c9 25 13 27 52 21
23 -3 44 -9 45 -14 7 -16 21 3 15 20 -15 43 -77 57 -106 24z"/>
<path d="M4296 1382 c-3 -5 -26 -8 -51 -7 -49 1 -55 -12 -15 -32 28 -14 66 0
73 28 5 20 2 25 -7 11z"/>
<path d="M4470 1399 c0 -5 5 -7 10 -4 6 3 10 8 10 11 0 2 -4 4 -10 4 -5 0 -10
-5 -10 -11z"/>
<path d="M4830 1399 c0 -5 5 -7 10 -4 6 3 10 8 10 11 0 2 -4 4 -10 4 -5 0 -10
-5 -10 -11z"/>
<path d="M4880 1415 c0 -8 7 -15 15 -15 8 0 15 7 15 15 0 8 -7 15 -15 15 -8 0
-15 -7 -15 -15z"/>
<path d="M4215 1186 c-12 -19 -15 -34 -9 -53 4 -16 8 -32 8 -38 1 -19 31 -34
66 -35 32 0 33 1 18 16 -12 12 -14 23 -7 47 19 66 -42 115 -76 63z m55 -36
c13 -25 5 -40 -21 -40 -25 0 -35 25 -19 45 17 20 27 19 40 -5z"/>
<path d="M4390 1155 c0 -10 7 -15 18 -13 21 4 19 22 -2 26 -10 2 -16 -3 -16
-13z"/>
<path d="M4455 1140 c-7 -12 2 -30 16 -30 12 0 12 27 0 35 -5 3 -12 1 -16 -5z"/>
<path d="M4600 1140 c0 -23 5 -30 19 -30 23 0 35 28 20 46 -20 24 -39 16 -39
-16z"/>
<path d="M4684 1136 c-8 -22 3 -33 18 -18 9 9 9 15 0 24 -9 9 -13 7 -18 -6z"/>
<path d="M4215 849 c-11 -16 -1 -19 13 -3 7 8 8 14 3 14 -5 0 -13 -5 -16 -11z"/>
<path d="M4282 846 c7 -8 15 -12 17 -11 5 6 -10 25 -20 25 -5 0 -4 -6 3 -14z"/>
<path d="M4240 819 c0 -5 -6 -7 -12 -3 -9 5 -9 2 1 -9 7 -9 19 -17 25 -17 6 0
4 5 -4 11 -12 9 -11 10 7 6 15 -3 20 -1 16 9 -6 16 -33 19 -33 3z"/>
<path d="M4575 860 c-7 -12 2 -30 16 -30 12 0 12 27 0 35 -5 3 -12 1 -16 -5z"/>
<path d="M4216 604 c-21 -21 -20 -57 2 -77 24 -22 45 -21 65 1 26 29 22 71 -9
82 -34 13 -40 13 -58 -6z"/>
<path d="M432 1953 c-33 -13 -42 -60 -42 -228 0 -163 0 -166 25 -190 24 -25
27 -25 198 -25 171 0 175 0 201 25 l26 24 0 171 0 172 -29 29 -29 29 -169 -1
c-92 0 -174 -3 -181 -6z m357 -18 c16 -8 31 -22 35 -30 3 -9 6 -88 6 -176 0
-156 -1 -160 -25 -184 -24 -25 -27 -25 -195 -25 -225 0 -210 -15 -210 209 0
155 2 170 21 195 l20 26 160 0 c121 0 167 -4 188 -15z"/>
<path d="M542 1758 c-11 -29 -25 -65 -31 -80 -8 -22 -8 -28 3 -28 8 0 17 11
20 25 5 21 12 25 41 25 29 0 36 -4 41 -25 3 -14 13 -25 21 -25 8 0 13 6 10 13
-46 115 -61 147 -72 147 -8 0 -22 -24 -33 -52z m47 -8 c9 -28 8 -30 -14 -30
-22 0 -23 2 -14 30 6 17 12 30 14 30 2 0 8 -13 14 -30z"/>
<path d="M675 1793 c25 -59 28 -91 12 -139 -18 -56 -16 -66 8 -30 26 40 30
101 10 146 -17 38 -45 59 -30 23z"/>
<path d="M2468 1565 c-3 -14 -1 -25 3 -25 5 0 9 11 9 25 0 14 -2 25 -4 25 -2
0 -6 -11 -8 -25z"/>
<path d="M5565 1348 c-42 -23 -45 -35 -45 -209 0 -92 3 -175 6 -184 14 -37 57
-45 229 -45 163 0 166 0 190 25 25 24 25 27 25 200 0 173 0 176 -25 200 -24
25 -27 25 -192 25 -102 0 -176 -5 -188 -12z m375 -18 c18 -18 20 -33 20 -195
0 -230 15 -215 -209 -215 -155 0 -170 2 -195 21 l-26 20 0 174 0 174 26 20
c25 19 40 21 195 21 156 0 171 -2 189 -20z"/>
<path d="M5683 1210 c-28 -12 -43 -40 -43 -84 0 -46 29 -76 73 -76 36 0 74 31
62 50 -5 8 -12 4 -22 -10 -22 -31 -74 -24 -87 11 -12 35 -1 76 25 90 18 9 27
7 50 -10 36 -27 48 -10 13 18 -29 23 -38 24 -71 11z"/>
<path d="M5810 1214 c0 -3 7 -27 16 -54 14 -44 14 -54 0 -101 -19 -67 -13 -76
14 -18 25 55 25 83 0 137 -17 37 -30 53 -30 36z"/>
</g>
</svg>
